<svg width="115" height="19" viewBox="0 0 115 19" fill="none" xmlns="http://www.w3.org/2000/svg">
<path d="M11.1758 1.86682L13.2981 5.25637C13.5962 5.73236 14.0726 6.06903 14.6207 6.19105L18.5306 7.06138C19.3521 7.24426 19.6712 8.24524 19.1071 8.86986L16.5426 11.7093C16.1504 12.1436 15.9573 12.7218 16.0099 13.3046L16.3536 17.1103C16.4276 17.9298 15.6074 18.5367 14.8453 18.2264L11.0361 16.6754C10.5288 16.4688 9.96074 16.4688 9.45338 16.6754L5.64421 18.2264C4.88209 18.5367 4.06194 17.9298 4.13594 17.1103L4.47958 13.3046C4.5322 12.7218 4.33913 12.1436 3.94694 11.7093L1.38243 8.86986C0.818295 8.24524 1.1374 7.24426 1.95895 7.06138L5.86877 6.19105C6.41695 6.06903 6.89335 5.73236 7.19139 5.25637L9.31374 1.86682C9.74412 1.17947 10.7454 1.17947 11.1758 1.86682Z" fill="#FED05B" stroke="#FED05B"/>
<mask id="mask0_1746_4128" style="mask-type:alpha" maskUnits="userSpaceOnUse" x="0" y="0" width="11" height="19">
<rect x="0.5979" y="0.581238" width="9.645" height="18.2284" fill="#D9D9D9"/>
</mask>
<g mask="url(#mask0_1746_4128)">
<path d="M8.88996 1.60147C9.51624 0.601249 10.9733 0.601247 11.5996 1.60147L13.7219 4.99102C13.9489 5.3536 14.3118 5.61005 14.7294 5.703L18.6392 6.57333C19.8347 6.83945 20.2991 8.29606 19.4781 9.20499L16.9136 12.0445C16.6149 12.3752 16.4678 12.8157 16.5079 13.2596L16.8516 17.0653C16.9592 18.2579 15.7658 19.1411 14.6567 18.6895L10.8476 17.1384C10.4611 16.9811 10.0284 16.9811 9.64194 17.1384L5.83277 18.6895C4.72375 19.1411 3.53028 18.2579 3.63797 17.0653L3.98161 13.2596C4.02169 12.8157 3.87462 12.3752 3.57588 12.0445L1.01137 9.20499C0.190449 8.29606 0.654798 6.83945 1.85031 6.57333L5.76013 5.703C6.1777 5.61005 6.54058 5.3536 6.76761 4.99102L8.88996 1.60147Z" fill="#FED05B"/>
</g>
<path d="M34.7535 1.86682L36.8758 5.25637C37.1739 5.73236 37.6503 6.06903 38.1984 6.19105L42.1083 7.06138C42.9298 7.24426 43.2489 8.24524 42.6848 8.86986L40.1203 11.7093C39.7281 12.1436 39.535 12.7218 39.5876 13.3046L39.9313 17.1103C40.0053 17.9298 39.1851 18.5367 38.423 18.2264L34.6138 16.6754C34.1065 16.4688 33.5384 16.4688 33.0311 16.6754L29.2219 18.2264C28.4598 18.5367 27.6396 17.9298 27.7136 17.1103L28.0573 13.3046C28.1099 12.7218 27.9168 12.1436 27.5246 11.7093L24.9601 8.86986C24.396 8.24524 24.7151 7.24426 25.5367 7.06138L29.4465 6.19105C29.9947 6.06903 30.471 5.73236 30.7691 5.25637L32.8914 1.86682C33.3218 1.17947 34.3231 1.17947 34.7535 1.86682Z" fill="#FED05B" stroke="#FED05B"/>
<path d="M58.331 1.86682L60.4534 5.25637C60.7514 5.73236 61.2278 6.06903 61.776 6.19105L65.6858 7.06138C66.5074 7.24426 66.8265 8.24524 66.2623 8.86986L63.6978 11.7093C63.3056 12.1436 63.1126 12.7218 63.1652 13.3046L63.5088 17.1103C63.5828 17.9298 62.7627 18.5367 62.0006 18.2264L58.1914 16.6754C57.684 16.4688 57.116 16.4688 56.6086 16.6754L52.7995 18.2264C52.0373 18.5367 51.2172 17.9298 51.2912 17.1103L51.6348 13.3046C51.6874 12.7218 51.4944 12.1436 51.1022 11.7093L48.5377 8.86986C47.9735 8.24524 48.2926 7.24426 49.1142 7.06138L53.024 6.19105C53.5722 6.06903 54.0486 5.73236 54.3466 5.25637L56.469 1.86682C56.8994 1.17947 57.9006 1.17947 58.331 1.86682Z" fill="#FED05B" stroke="#FED05B"/>
<path d="M81.9086 1.86682L84.0309 5.25637C84.329 5.73236 84.8054 6.06903 85.3535 6.19105L89.2634 7.06138C90.0849 7.24426 90.404 8.24524 89.8399 8.86986L87.2754 11.7093C86.8832 12.1436 86.6901 12.7218 86.7427 13.3046L87.0864 17.1103C87.1604 17.9298 86.3402 18.5367 85.5781 18.2264L81.7689 16.6754C81.2616 16.4688 80.6935 16.4688 80.1862 16.6754L76.377 18.2264C75.6149 18.5367 74.7947 17.9298 74.8687 17.1103L75.2124 13.3046C75.265 12.7218 75.0719 12.1436 74.6797 11.7093L72.1152 8.86986C71.5511 8.24524 71.8702 7.24426 72.6917 7.06138L76.6016 6.19105C77.1497 6.06903 77.6261 5.73236 77.9242 5.25637L80.0465 1.86682C80.4769 1.17947 81.4782 1.17947 81.9086 1.86682Z" fill="#FED05B" stroke="#FED05B"/>
<path d="M105.486 1.86682L107.608 5.25637C107.906 5.73236 108.383 6.06903 108.931 6.19105L112.841 7.06138C113.662 7.24426 113.982 8.24524 113.417 8.86986L110.853 11.7093C110.461 12.1436 110.268 12.7218 110.32 13.3046L110.664 17.1103C110.738 17.9298 109.918 18.5367 109.156 18.2264L105.346 16.6754C104.839 16.4688 104.271 16.4688 103.764 16.6754L99.9545 18.2264C99.1924 18.5367 98.3723 17.9298 98.4463 17.1103L98.7899 13.3046C98.8425 12.7218 98.6495 12.1436 98.2573 11.7093L95.6928 8.86986C95.1286 8.24524 95.4477 7.24426 96.2693 7.06138L100.179 6.19105C100.727 6.06903 101.204 5.73236 101.502 5.25637L103.624 1.86682C104.054 1.17947 105.056 1.17947 105.486 1.86682Z" fill="#FED05B" stroke="#FED05B"/>
</svg>
