<svg width="115" height="19" viewBox="0 0 115 19" fill="none" xmlns="http://www.w3.org/2000/svg">
<path d="M81.4695 1.41009L83.5918 4.79964C83.8899 5.27564 84.3663 5.6123 84.9144 5.73433L88.8243 6.60466C89.6458 6.78753 89.9649 7.78852 89.4008 8.41314L86.8363 11.2526C86.4441 11.6868 86.251 12.2651 86.3036 12.8478L86.6473 16.6535C86.7213 17.4731 85.9011 18.08 85.139 17.7697L81.3298 16.2186C80.8225 16.012 80.2544 16.012 79.7471 16.2186L75.9379 17.7697C75.1758 18.08 74.3556 17.4731 74.4296 16.6535L74.7733 12.8478C74.8259 12.2651 74.6328 11.6868 74.2406 11.2526L71.6761 8.41314C71.112 7.78852 71.4311 6.78754 72.2527 6.60466L76.1625 5.73433C76.7107 5.6123 77.1871 5.27564 77.4851 4.79965L79.6074 1.41009C80.0378 0.722739 81.0391 0.722739 81.4695 1.41009Z" fill="#FED05B" stroke="#FED05B"/>
<mask id="mask0_1746_4106" style="mask-type:alpha" maskUnits="userSpaceOnUse" x="70" y="0" width="11" height="19">
<rect x="70.8916" y="0.124512" width="9.645" height="18.2284" fill="#D9D9D9"/>
</mask>
<g mask="url(#mask0_1746_4106)">
<path d="M79.1837 1.14474C79.8099 0.144523 81.267 0.144521 81.8933 1.14474L84.0156 4.5343C84.2426 4.89687 84.6055 5.15332 85.0231 5.24627L88.9329 6.1166C90.1284 6.38272 90.5928 7.83933 89.7718 8.74827L87.2073 11.5877C86.9086 11.9185 86.7615 12.359 86.8016 12.8029L87.1453 16.6086C87.2529 17.8012 86.0595 18.6843 84.9504 18.2328L81.1413 16.6817C80.7548 16.5244 80.3221 16.5244 79.9356 16.6817L76.1265 18.2328C75.0175 18.6843 73.824 17.8012 73.9317 16.6086L74.2753 12.8029C74.3154 12.359 74.1683 11.9185 73.8696 11.5877L71.3051 8.74827C70.4841 7.83933 70.9485 6.38272 72.144 6.1166L76.0538 5.24627C76.4714 5.15332 76.8343 4.89687 77.0613 4.5343L79.1837 1.14474Z" fill="#FED05B"/>
</g>
<path d="M34.7535 1.41015L36.8758 4.79971C37.1739 5.2757 37.6503 5.61236 38.1984 5.73439L42.1083 6.60472C42.9298 6.7876 43.2489 7.78858 42.6848 8.4132L40.1203 11.2527C39.7281 11.6869 39.535 12.2652 39.5876 12.8479L39.9313 16.6536C40.0053 17.4731 39.1851 18.0801 38.423 17.7697L34.6138 16.2187C34.1065 16.0121 33.5384 16.0121 33.0311 16.2187L29.2219 17.7697C28.4598 18.0801 27.6396 17.4731 27.7136 16.6536L28.0573 12.8479C28.1099 12.2651 27.9168 11.6869 27.5246 11.2527L24.9601 8.4132C24.396 7.78858 24.7151 6.7876 25.5367 6.60472L29.4465 5.73439C29.9947 5.61236 30.471 5.2757 30.7691 4.79971L32.8914 1.41015C33.3218 0.7228 34.3231 0.7228 34.7535 1.41015Z" fill="#FED05B" stroke="#FED05B"/>
<path d="M58.331 1.41015L60.4534 4.79971C60.7514 5.2757 61.2278 5.61236 61.776 5.73439L65.6858 6.60472C66.5074 6.7876 66.8265 7.78858 66.2623 8.4132L63.6978 11.2527C63.3056 11.6869 63.1126 12.2652 63.1652 12.8479L63.5088 16.6536C63.5828 17.4731 62.7627 18.0801 62.0006 17.7697L58.1914 16.2187C57.684 16.0121 57.116 16.0121 56.6086 16.2187L52.7995 17.7697C52.0373 18.0801 51.2172 17.4731 51.2912 16.6536L51.6348 12.8479C51.6874 12.2651 51.4944 11.6869 51.1022 11.2527L48.5377 8.4132C47.9735 7.78858 48.2926 6.7876 49.1142 6.60472L53.024 5.73439C53.5722 5.61236 54.0486 5.2757 54.3466 4.79971L56.469 1.41015C56.8994 0.7228 57.9006 0.7228 58.331 1.41015Z" fill="#FED05B" stroke="#FED05B"/>
<path d="M11.1758 1.4101L13.2981 4.79966C13.5962 5.27565 14.0726 5.61232 14.6207 5.73434L18.5306 6.60467C19.3521 6.78755 19.6712 7.78853 19.1071 8.41315L16.5426 11.2526C16.1504 11.6868 15.9573 12.2651 16.0099 12.8479L16.3536 16.6536C16.4276 17.4731 15.6074 18.08 14.8453 17.7697L11.0361 16.2187C10.5288 16.0121 9.96074 16.0121 9.45338 16.2187L5.64421 17.7697C4.88209 18.08 4.06194 17.4731 4.13594 16.6536L4.47958 12.8479C4.5322 12.2651 4.33913 11.6868 3.94694 11.2526L1.38243 8.41315C0.818295 7.78853 1.1374 6.78755 1.95895 6.60467L5.86877 5.73434C6.41695 5.61232 6.89335 5.27565 7.19139 4.79966L9.31374 1.41011C9.74412 0.722754 10.7454 0.722754 11.1758 1.4101Z" fill="#FED05B" stroke="#FED05B"/>
<path d="M105.486 1.41015L107.608 4.79971C107.906 5.2757 108.383 5.61236 108.931 5.73439L112.841 6.60472C113.662 6.7876 113.982 7.78858 113.417 8.4132L110.853 11.2527C110.461 11.6869 110.268 12.2652 110.32 12.8479L110.664 16.6536C110.738 17.4731 109.918 18.0801 109.156 17.7697L105.346 16.2187C104.839 16.0121 104.271 16.0121 103.764 16.2187L99.9545 17.7697C99.1924 18.0801 98.3723 17.4731 98.4463 16.6536L98.7899 12.8479C98.8425 12.2651 98.6495 11.6869 98.2573 11.2527L95.6928 8.4132C95.1286 7.78858 95.4477 6.7876 96.2693 6.60472L100.179 5.73439C100.727 5.61236 101.204 5.2757 101.502 4.79971L103.624 1.41015C104.054 0.7228 105.056 0.7228 105.486 1.41015Z" stroke="#FED05B"/>
</svg>
