<svg width="115" height="19" viewBox="0 0 115 19" fill="none" xmlns="http://www.w3.org/2000/svg">
<path d="M105.469 1.63845L107.592 5.02801C107.89 5.504 108.366 5.84066 108.914 5.96269L112.824 6.83302C113.646 7.0159 113.965 8.01688 113.401 8.6415L110.836 11.481C110.444 11.9152 110.251 12.4935 110.304 13.0762L110.647 16.8819C110.721 17.7014 109.901 18.3084 109.139 17.998L105.33 16.447C104.822 16.2404 104.254 16.2404 103.747 16.447L99.9379 17.9981C99.1758 18.3084 98.3556 17.7014 98.4296 16.8819L98.7733 13.0762C98.8259 12.4935 98.6328 11.9152 98.2406 11.481L95.6761 8.6415C95.112 8.01688 95.4311 7.0159 96.2527 6.83302L100.162 5.96269C100.711 5.84067 101.187 5.504 101.485 5.02801L103.607 1.63845C104.038 0.951102 105.039 0.951102 105.469 1.63845Z" stroke="#FED05B"/>
<mask id="mask0_1746_4117" style="mask-type:alpha" maskUnits="userSpaceOnUse" x="94" y="0" width="11" height="19">
<rect x="94.8916" y="0.352875" width="9.645" height="18.2284" fill="#D9D9D9"/>
</mask>
<g mask="url(#mask0_1746_4117)">
<path d="M103.184 1.37311C103.81 0.372886 105.267 0.372884 105.893 1.3731L108.016 4.76266C108.243 5.12524 108.606 5.38169 109.023 5.47464L112.933 6.34496C114.128 6.61109 114.593 8.0677 113.772 8.97663L111.207 11.8161C110.909 12.1469 110.762 12.5873 110.802 13.0312L111.145 16.8369C111.253 18.0295 110.059 18.9127 108.95 18.4611L105.141 16.9101C104.755 16.7527 104.322 16.7527 103.936 16.9101L100.126 18.4611C99.0175 18.9127 97.824 18.0295 97.9317 16.8369L98.2753 13.0312C98.3154 12.5873 98.1683 12.1469 97.8696 11.8161L95.3051 8.97663C94.4841 8.06769 94.9485 6.61109 96.144 6.34496L100.054 5.47464C100.471 5.38169 100.834 5.12524 101.061 4.76266L103.184 1.37311Z" fill="#FED05B"/>
</g>
<path d="M34.7535 1.63847L36.8758 5.02802C37.1739 5.50401 37.6503 5.84068 38.1984 5.96271L42.1083 6.83303C42.9298 7.01591 43.2489 8.0169 42.6848 8.64151L40.1203 11.481C39.7281 11.9152 39.535 12.4935 39.5876 13.0762L39.9313 16.8819C40.0053 17.7015 39.1851 18.3084 38.423 17.9981L34.6138 16.447C34.1065 16.2404 33.5384 16.2404 33.0311 16.447L29.2219 17.9981C28.4598 18.3084 27.6396 17.7015 27.7136 16.8819L28.0573 13.0762C28.1099 12.4935 27.9168 11.9152 27.5246 11.481L24.9601 8.64151C24.396 8.01689 24.7151 7.01591 25.5367 6.83303L29.4465 5.96271C29.9947 5.84068 30.471 5.50401 30.7691 5.02802L32.8914 1.63847C33.3218 0.951117 34.3231 0.951117 34.7535 1.63847Z" fill="#FED05B" stroke="#FED05B"/>
<path d="M58.331 1.63847L60.4534 5.02802C60.7514 5.50401 61.2278 5.84068 61.776 5.96271L65.6858 6.83303C66.5074 7.01591 66.8265 8.0169 66.2623 8.64151L63.6978 11.481C63.3056 11.9152 63.1126 12.4935 63.1652 13.0762L63.5088 16.8819C63.5828 17.7015 62.7627 18.3084 62.0006 17.9981L58.1914 16.447C57.684 16.2404 57.116 16.2404 56.6086 16.447L52.7995 17.9981C52.0373 18.3084 51.2172 17.7015 51.2912 16.8819L51.6348 13.0762C51.6874 12.4935 51.4944 11.9152 51.1022 11.481L48.5377 8.64151C47.9735 8.01689 48.2926 7.01591 49.1142 6.83303L53.024 5.96271C53.5722 5.84068 54.0486 5.50401 54.3466 5.02802L56.469 1.63847C56.8994 0.951117 57.9006 0.951117 58.331 1.63847Z" fill="#FED05B" stroke="#FED05B"/>
<path d="M81.9086 1.63847L84.0309 5.02802C84.329 5.50401 84.8054 5.84068 85.3535 5.96271L89.2634 6.83303C90.0849 7.01591 90.404 8.0169 89.8399 8.64151L87.2754 11.481C86.8832 11.9152 86.6901 12.4935 86.7427 13.0762L87.0864 16.8819C87.1604 17.7015 86.3402 18.3084 85.5781 17.9981L81.7689 16.447C81.2616 16.2404 80.6935 16.2404 80.1862 16.447L76.377 17.9981C75.6149 18.3084 74.7947 17.7015 74.8687 16.8819L75.2124 13.0762C75.265 12.4935 75.0719 11.9152 74.6797 11.481L72.1152 8.64151C71.5511 8.01689 71.8702 7.01591 72.6917 6.83303L76.6016 5.96271C77.1497 5.84068 77.6261 5.50401 77.9242 5.02802L80.0465 1.63847C80.4769 0.951117 81.4782 0.951117 81.9086 1.63847Z" fill="#FED05B" stroke="#FED05B"/>
<path d="M11.1758 1.63845L13.2981 5.02801C13.5962 5.504 14.0726 5.84066 14.6207 5.96269L18.5306 6.83302C19.3521 7.0159 19.6712 8.01688 19.1071 8.6415L16.5426 11.481C16.1504 11.9152 15.9573 12.4935 16.0099 13.0762L16.3536 16.8819C16.4276 17.7014 15.6074 18.3084 14.8453 17.998L11.0361 16.447C10.5288 16.2404 9.96074 16.2404 9.45338 16.447L5.64421 17.9981C4.88209 18.3084 4.06194 17.7014 4.13594 16.8819L4.47958 13.0762C4.5322 12.4935 4.33913 11.9152 3.94694 11.481L1.38243 8.6415C0.818295 8.01688 1.1374 7.0159 1.95895 6.83302L5.86877 5.96269C6.41695 5.84067 6.89335 5.504 7.19139 5.02801L9.31374 1.63845C9.74412 0.951102 10.7454 0.951102 11.1758 1.63845Z" fill="#FED05B" stroke="#FED05B"/>
</svg>
