<svg width="145" height="65" viewBox="0 0 145 65" fill="none" xmlns="http://www.w3.org/2000/svg">
<rect width="145" height="65" fill="#071D2B"/>
<circle cx="29.0634" cy="28.7526" r="11.0293" fill="white"/>
<mask id="mask0_1_2" style="mask-type:luminance" maskUnits="userSpaceOnUse" x="33" y="35" width="2" height="1">
<path d="M34.0206 35.7649H33.8031V35.9829H34.0206V35.7649Z" fill="white"/>
</mask>
<g mask="url(#mask0_1_2)">
<mask id="mask1_1_2" style="mask-type:luminance" maskUnits="userSpaceOnUse" x="33" y="35" width="2" height="1">
<path d="M34.0206 35.7649H33.8031V35.9829H34.0206V35.7649Z" fill="white"/>
</mask>
<g mask="url(#mask1_1_2)">
<path d="M34.0025 35.8739C34.0025 35.9284 33.9481 35.9829 33.8938 35.9829C33.8394 35.9829 33.785 35.9284 33.785 35.8739C33.785 35.8194 33.8394 35.7649 33.8938 35.7649C33.9663 35.7649 34.0025 35.8194 34.0025 35.8739Z" fill="white"/>
</g>
</g>
<mask id="mask2_1_2" style="mask-type:luminance" maskUnits="userSpaceOnUse" x="28" y="34" width="1" height="2">
<path d="M28.9819 34.9111H28.7644V35.1291H28.9819V34.9111Z" fill="white"/>
</mask>
<g mask="url(#mask2_1_2)">
<mask id="mask3_1_2" style="mask-type:luminance" maskUnits="userSpaceOnUse" x="28" y="34" width="1" height="2">
<path d="M28.9819 34.9111H28.7644V35.1291H28.9819V34.9111Z" fill="white"/>
</mask>
<g mask="url(#mask3_1_2)">
<path d="M28.9819 35.0201C28.9819 35.0746 28.9275 35.1291 28.8731 35.1291C28.8187 35.1291 28.7644 35.0746 28.7644 35.0201C28.7644 34.9656 28.8187 34.9111 28.8731 34.9111C28.9275 34.9292 28.9819 34.9656 28.9819 35.0201Z" fill="white"/>
</g>
</g>
<mask id="mask4_1_2" style="mask-type:luminance" maskUnits="userSpaceOnUse" x="33" y="35" width="2" height="1">
<path d="M34.0206 35.7649H33.8031V35.9829H34.0206V35.7649Z" fill="white"/>
</mask>
<g mask="url(#mask4_1_2)">
<mask id="mask5_1_2" style="mask-type:luminance" maskUnits="userSpaceOnUse" x="33" y="35" width="2" height="1">
<path d="M34.0206 35.7649H33.8031V35.9829H34.0206V35.7649Z" fill="white"/>
</mask>
<g mask="url(#mask5_1_2)">
<path d="M34.0025 35.8739C34.0025 35.9284 33.9481 35.9829 33.8938 35.9829C33.8394 35.9829 33.785 35.9284 33.785 35.8739C33.785 35.8194 33.8394 35.7649 33.8938 35.7649C33.9663 35.7649 34.0025 35.8194 34.0025 35.8739Z" fill="white"/>
</g>
</g>
<mask id="mask6_1_2" style="mask-type:luminance" maskUnits="userSpaceOnUse" x="28" y="34" width="1" height="2">
<path d="M28.9819 34.9111H28.7644V35.1291H28.9819V34.9111Z" fill="white"/>
</mask>
<g mask="url(#mask6_1_2)">
<mask id="mask7_1_2" style="mask-type:luminance" maskUnits="userSpaceOnUse" x="28" y="34" width="1" height="2">
<path d="M28.9819 34.9111H28.7644V35.1291H28.9819V34.9111Z" fill="white"/>
</mask>
<g mask="url(#mask7_1_2)">
<path d="M28.9819 35.0201C28.9819 35.0746 28.9275 35.1291 28.8731 35.1291C28.8187 35.1291 28.7644 35.0746 28.7644 35.0201C28.7644 34.9656 28.8187 34.9111 28.8731 34.9111C28.9275 34.9292 28.9819 34.9656 28.9819 35.0201Z" fill="white"/>
</g>
</g>
<path d="M124.99 32.3132L126.494 32.7492C125.697 34.5296 124.301 35.4016 122.326 35.4016C120.858 35.4016 119.643 34.9292 118.701 33.9846C117.758 33.0399 117.287 31.8409 117.287 30.3694C117.287 28.9161 117.74 27.6989 118.646 26.7361C119.552 25.7551 120.694 25.2827 122.09 25.2827C123.467 25.2827 124.609 25.7369 125.516 26.6634C126.422 27.5899 126.875 28.8434 126.875 30.4421V31.0416H119.843C119.969 31.7319 120.241 32.2951 120.694 32.7129C121.148 33.1307 121.691 33.3487 122.344 33.3487C123.087 33.3487 123.667 33.0944 124.084 32.6039C124.319 32.3314 124.664 32.2042 124.99 32.3132ZM122.126 27.2084C121.528 27.2084 121.039 27.3901 120.64 27.7534C120.241 28.1167 119.987 28.6436 119.861 29.3339H124.265C124.229 28.6436 124.011 28.1167 123.613 27.7534C123.214 27.3719 122.706 27.2084 122.126 27.2084Z" fill="white"/>
<path d="M88.1419 27.5536C88.6312 27.5536 89.0119 27.1539 89.0119 26.6816V25.5916H86.275V23.1936H84.7706C84.2813 23.1936 83.9006 23.5932 83.9006 24.0656V25.5916H83.4475C82.9581 25.5916 82.5775 25.9912 82.5775 26.4636V27.5536H83.9006V31.0597C83.9006 31.6229 83.9006 32.1316 83.9187 32.5857C83.9369 33.0399 84.0456 33.4759 84.2812 33.9119C84.535 34.3842 84.9156 34.7112 85.405 34.9111C85.8944 35.1109 86.4562 35.2381 87.0906 35.2381C87.725 35.2562 88.3594 35.2017 89.0119 35.0746V34.0391C89.0119 33.5486 88.595 33.1489 88.1056 33.1671C87.8881 33.1671 87.6706 33.1671 87.4712 33.1671C87 33.1307 86.6737 32.9491 86.4562 32.6221C86.3475 32.4404 86.2931 32.2042 86.275 31.9136C86.275 31.6229 86.2569 31.2777 86.2569 30.9144V27.5536H88.1419Z" fill="white"/>
<path d="M50.7681 22.4306H48.2306L43.6813 35.0927H45.6206C45.9831 35.0927 46.3094 34.8566 46.4363 34.5114L47.1975 32.4404H52.8344L53.5956 34.5114C53.7225 34.8566 54.0488 35.0927 54.4113 35.0927H56.3506L52.1456 23.3934C51.9463 22.8121 51.3844 22.4306 50.7681 22.4306ZM48.0131 30.2786L50.025 24.8467L52.0369 30.2786H48.0131Z" fill="white"/>
<path d="M68.9294 25.3554C66.9175 25.3554 65.6306 26.2456 64.96 27.9896L66.41 28.4982C66.7544 28.6254 67.1531 28.5164 67.3706 28.2257C67.6788 27.8442 68.0413 27.5172 68.9113 27.5172C69.9988 27.5172 70.4519 27.8987 70.5425 28.9524L67.6063 29.4611C64.9056 29.9152 64.5794 31.5684 64.5794 32.4949C64.5794 33.4032 65.2681 35.3834 67.8781 35.3834C69.2013 35.3834 70.1438 34.9111 70.7781 34.2934C70.8144 34.7476 71.195 35.1109 71.6481 35.1109H72.8806V28.9887C72.8625 26.4091 71.2494 25.3554 68.9294 25.3554ZM68.2588 33.4759C67.3344 33.4759 66.8994 33.1671 66.8994 32.5857C66.8994 32.0044 67.3344 31.3867 68.7844 31.1324C69.5819 30.9871 70.2344 30.8781 70.6513 30.7872V31.3867C70.6694 32.6221 69.4369 33.4759 68.2588 33.4759Z" fill="white"/>
<path d="M62.8212 25.5916C62.4587 25.5916 62.1325 25.8277 62.0056 26.1729L59.8306 32.0226L57.6737 26.1729C57.5469 25.8277 57.2206 25.5916 56.8581 25.5916H55.0275L58.6344 35.0927H61.0269L64.6337 25.5916H62.8212Z" fill="white"/>
<path d="M82.0881 32.3496C82.0881 31.3867 81.5987 30.5329 80.8556 30.0242C80.8375 30.0061 80.8013 29.9879 80.7831 29.9697C80.765 29.9697 80.7469 29.9516 80.7469 29.9516C80.6562 29.8971 80.5656 29.8426 80.475 29.8062C80.1306 29.6427 79.75 29.4974 79.75 29.4974C79.5869 29.4429 79.4419 29.3884 79.2606 29.3157C77.6294 28.7707 76.85 28.6436 76.85 28.0986C76.85 27.6081 77.43 27.3719 78.0281 27.3719C78.4087 27.3719 78.9706 27.4991 79.4056 28.0441C79.4056 28.0441 79.4056 28.0441 79.4238 28.0622C79.4419 28.0804 79.4419 28.0804 79.46 28.0986C79.46 28.0986 79.46 28.0986 79.4781 28.1167C79.6412 28.2802 79.8587 28.3892 80.0944 28.3892C80.185 28.3892 80.2937 28.3711 80.3662 28.3347C80.3662 28.3347 80.3662 28.3347 80.3844 28.3347L81.7075 27.8806C81.2544 26.3546 79.8406 25.3554 77.9556 25.3554C77.2306 25.3554 76.6325 25.4644 76.1431 25.6642C75.1825 26.0276 74.4937 26.9722 74.4937 28.0622C74.4937 29.0977 75.11 29.9879 75.9981 30.3876C76.4331 30.6056 76.9406 30.8054 77.5569 30.9871C79.2606 31.4957 79.6594 31.8227 79.6594 32.4222C79.6594 32.4949 79.6594 32.5676 79.6412 32.6221C79.605 32.7492 79.5506 32.8582 79.46 32.9491C79.2244 33.2034 78.7712 33.3306 78.1912 33.3306C77.4662 33.3306 76.8137 33.0217 76.3606 32.2769C76.1431 31.9136 75.7081 31.7682 75.3275 31.9136L74.0044 32.3859C74.5481 33.9846 75.6537 35.4016 78.1731 35.4016C79.3331 35.4016 80.2394 35.1472 80.8738 34.7112C81.5988 34.1481 82.0881 33.2942 82.0881 32.3496Z" fill="white"/>
<path d="M27.4956 20.4504C28.9094 19.4876 30.8487 20.0144 31.5919 21.5586L38.0262 35.2017C39.3131 33.4032 40.0744 31.2051 40.0925 28.8252C40.1287 22.7212 35.235 17.7254 29.145 17.6891C23.055 17.6527 18.0706 22.5577 18.0344 28.6799C18.0162 31.0961 18.7775 33.3306 20.0825 35.1654L20.3362 35.1109L24.5412 34.1844C24.6681 34.1662 24.7225 34.3116 24.6137 34.3842L21.1337 36.4552C23.1275 38.5262 25.9006 39.8161 28.9819 39.8342C32.4437 39.8524 35.525 38.2901 37.5731 35.8012L27.0425 24.6832C25.8825 23.4297 26.0819 21.4132 27.4956 20.4504ZM29.4712 32.9854L22.6925 33.5667C21.9494 33.6212 21.3331 33.0217 21.3875 32.2769C21.4419 31.5321 22.1306 31.0234 22.8556 31.1869L29.4712 32.7492C29.6163 32.8037 29.5981 32.9854 29.4712 32.9854ZM26.3356 27.0086L34.5644 33.6757C34.655 33.7484 34.5644 33.8937 34.4556 33.8574L24.5594 30.0969C23.5262 29.6972 23.0912 28.4801 23.635 27.5172C24.1969 26.5544 25.4837 26.3182 26.3356 27.0086Z" fill="#FF7800"/>
<path d="M104.309 23.9747C105.506 25.2282 106.122 26.8087 106.122 28.7344C106.122 30.6601 105.524 32.2587 104.309 33.4941C103.113 34.7476 101.591 35.3652 99.7962 35.3652C97.9837 35.3652 96.4794 34.7476 95.2831 33.4941C94.0869 32.2406 93.4706 30.6601 93.4706 28.7344C93.4706 26.8087 94.0688 25.2101 95.2831 23.9747C96.4794 22.7212 98.0019 22.1036 99.7962 22.1036C101.591 22.1036 103.095 22.7212 104.309 23.9747ZM102.787 32.1316C103.602 31.2596 104.001 30.1332 104.001 28.7526C104.001 27.3719 103.602 26.2456 102.787 25.3736C101.971 24.5016 100.974 24.0656 99.7781 24.0656C98.6 24.0656 97.585 24.5016 96.7694 25.3736C95.9538 26.2456 95.555 27.3719 95.555 28.7526C95.555 30.1332 95.9538 31.2596 96.7694 32.1316C97.585 33.0036 98.5819 33.4396 99.7781 33.4396C100.974 33.4396 101.989 33.0036 102.787 32.1316Z" fill="white"/>
<path d="M99.7781 35.4742C97.9475 35.4742 96.4069 34.8384 95.1925 33.5667C93.9781 32.3132 93.3619 30.6782 93.3619 28.7344C93.3619 26.7906 93.9781 25.1556 95.1925 23.9021C96.4069 22.6304 97.9475 21.9946 99.7781 21.9946C101.609 21.9946 103.149 22.6304 104.364 23.9021C105.578 25.1556 106.194 26.7906 106.194 28.7344C106.194 30.6782 105.578 32.3132 104.364 33.5667C103.149 34.8384 101.609 35.4742 99.7781 35.4742ZM99.7781 22.1944C98.0019 22.1944 96.4975 22.8121 95.3194 24.0474C94.1413 25.2646 93.5431 26.8632 93.5431 28.7526C93.5431 30.6419 94.1413 32.2224 95.3194 33.4577C96.4975 34.6749 98.0019 35.3107 99.7781 35.3107C101.554 35.3107 103.059 34.6931 104.237 33.4577C105.415 32.2406 106.013 30.6419 106.013 28.7526C106.013 26.8632 105.415 25.2827 104.237 24.0474C103.059 22.8121 101.554 22.1944 99.7781 22.1944ZM99.7781 33.5304C98.5637 33.5304 97.5306 33.0762 96.715 32.1861C95.8812 31.2959 95.4644 30.1332 95.4644 28.7344C95.4644 27.3356 95.8812 26.1729 96.715 25.2827C97.5487 24.3926 98.5819 23.9384 99.7781 23.9384C100.992 23.9384 102.044 24.3926 102.859 25.2827C103.675 26.1729 104.092 27.3356 104.092 28.7344C104.092 30.1332 103.675 31.2959 102.859 32.1861C102.044 33.0762 101.011 33.5304 99.7781 33.5304ZM99.7781 24.1382C98.6181 24.1382 97.6394 24.5742 96.8419 25.4099C96.0444 26.2637 95.6456 27.3719 95.6456 28.7344C95.6456 30.0787 96.0444 31.2051 96.8419 32.0589C97.6394 32.9127 98.6181 33.3306 99.7781 33.3306C100.938 33.3306 101.935 32.8946 102.714 32.0589C103.494 31.2051 103.911 30.0969 103.911 28.7344C103.911 27.3901 103.512 26.2637 102.714 25.4099C101.935 24.5742 100.956 24.1382 99.7781 24.1382Z" fill="white"/>
<path d="M112.665 25.2646C112.52 25.2646 112.357 25.2827 112.212 25.3009C111.795 25.3554 111.414 25.4826 111.052 25.6824C110.544 25.9549 110.146 26.3182 109.874 26.7542H109.837V26.2274C109.837 25.8641 109.529 25.5552 109.167 25.5552H107.518V34.4206C107.518 34.7839 107.826 35.0927 108.188 35.0927H110.001V29.6064C110.001 28.9887 110.2 28.4619 110.581 28.0622C110.961 27.6626 111.432 27.4627 111.976 27.4627C113.027 27.4627 113.553 28.1167 113.553 29.4429V34.4024C113.553 34.7657 113.861 35.0746 114.224 35.0746H116.036V28.9706C116.036 28.5346 116 28.1349 115.909 27.7534C115.547 26.3364 114.224 25.2646 112.665 25.2646Z" fill="white"/>
<path d="M86.6069 48.0284V40.5284H87.4165V41.3948H87.516C87.5775 41.3001 87.6628 41.1794 87.7717 41.0326C87.8829 40.8835 88.0415 40.7509 88.2475 40.6349C88.4558 40.5165 88.7376 40.4573 89.0927 40.4573C89.552 40.4573 89.9568 40.5722 90.3072 40.8018C90.6576 41.0314 90.931 41.357 91.1275 41.7784C91.324 42.1998 91.4222 42.6969 91.4222 43.2698C91.4222 43.8475 91.324 44.3482 91.1275 44.772C90.931 45.1934 90.6587 45.5201 90.3107 45.7521C89.9627 45.9817 89.5614 46.0965 89.1069 46.0965C88.7565 46.0965 88.476 46.0385 88.2653 45.9225C88.0546 45.8042 87.8924 45.6704 87.7788 45.5213C87.6651 45.3697 87.5775 45.2443 87.516 45.1448H87.445V48.0284H86.6069ZM87.4308 43.2556C87.4308 43.6676 87.4911 44.031 87.6119 44.3458C87.7326 44.6583 87.909 44.9034 88.141 45.0809C88.373 45.2561 88.6571 45.3437 88.9933 45.3437C89.3436 45.3437 89.636 45.2514 89.8704 45.0667C90.1071 44.8797 90.2847 44.6287 90.4031 44.3139C90.5238 43.9966 90.5842 43.6439 90.5842 43.2556C90.5842 42.8721 90.525 42.5265 90.4066 42.2187C90.2906 41.9086 90.1142 41.6635 89.8775 41.4836C89.6431 41.3013 89.3484 41.2102 88.9933 41.2102C88.6523 41.2102 88.3659 41.2966 88.1339 41.4694C87.9019 41.6399 87.7267 41.879 87.6083 42.1867C87.4899 42.4921 87.4308 42.8484 87.4308 43.2556Z" fill="white"/>
<path d="M92.7006 45.9829V40.5284H93.5103V41.3522H93.5671C93.6665 41.0823 93.8465 40.8634 94.1069 40.6953C94.3673 40.5272 94.6609 40.4431 94.9876 40.4431C95.0491 40.4431 95.1261 40.4443 95.2184 40.4467C95.3107 40.4491 95.3806 40.4526 95.4279 40.4573V41.3096C95.3995 41.3025 95.3344 41.2919 95.2326 41.2777C95.1332 41.2611 95.0278 41.2528 94.9165 41.2528C94.6514 41.2528 94.4147 41.3084 94.2063 41.4197C94.0004 41.5286 93.837 41.6801 93.7163 41.8742C93.5979 42.066 93.5387 42.285 93.5387 42.5312V45.9829H92.7006Z" fill="white"/>
<path d="M98.5423 46.0965C98.0167 46.0965 97.5633 45.9805 97.1822 45.7485C96.8034 45.5142 96.511 45.1875 96.305 44.7684C96.1014 44.347 95.9996 43.857 95.9996 43.2983C95.9996 42.7395 96.1014 42.2471 96.305 41.821C96.511 41.3925 96.7975 41.0587 97.1644 40.8196C97.5337 40.5781 97.9646 40.4573 98.457 40.4573C98.7411 40.4573 99.0217 40.5047 99.2986 40.5994C99.5756 40.6941 99.8278 40.848 100.055 41.061C100.282 41.2717 100.463 41.5511 100.598 41.8991C100.733 42.2471 100.801 42.6756 100.801 43.1846V43.5397H96.5962V42.8153H99.9485C99.9485 42.5075 99.887 42.2329 99.7638 41.9914C99.6431 41.75 99.4703 41.5594 99.2454 41.4197C99.0228 41.28 98.7601 41.2102 98.457 41.2102C98.1232 41.2102 97.8344 41.293 97.5906 41.4588C97.3491 41.6221 97.1632 41.8352 97.033 42.098C96.9028 42.3608 96.8377 42.6425 96.8377 42.9431V43.4261C96.8377 43.838 96.9087 44.1872 97.0508 44.4737C97.1952 44.7578 97.3952 44.9744 97.6509 45.1235C97.9066 45.2703 98.2037 45.3437 98.5423 45.3437C98.7624 45.3437 98.9613 45.3129 99.1388 45.2514C99.3188 45.1875 99.4738 45.0928 99.604 44.9673C99.7343 44.8394 99.8349 44.6808 99.9059 44.4914L100.716 44.7187C100.63 44.9933 100.487 45.2348 100.286 45.4431C100.085 45.6491 99.8361 45.8101 99.5401 45.9261C99.2442 46.0397 98.9116 46.0965 98.5423 46.0965Z" fill="white"/>
<path d="M102.076 45.9829V40.5284H102.885V41.3806H102.956C103.07 41.0894 103.253 40.8634 103.507 40.7024C103.76 40.539 104.064 40.4573 104.419 40.4573C104.779 40.4573 105.079 40.539 105.318 40.7024C105.559 40.8634 105.748 41.0894 105.882 41.3806H105.939C106.079 41.0989 106.288 40.8752 106.568 40.7095C106.847 40.5414 107.182 40.4573 107.573 40.4573C108.06 40.4573 108.459 40.61 108.77 40.9154C109.08 41.2185 109.235 41.6908 109.235 42.3323V45.9829H108.397V42.3323C108.397 41.9299 108.287 41.6422 108.066 41.4694C107.846 41.2966 107.587 41.2102 107.289 41.2102C106.905 41.2102 106.608 41.3262 106.397 41.5582C106.187 41.7878 106.081 42.079 106.081 42.4318V45.9829H105.229V42.2471C105.229 41.937 105.128 41.6872 104.927 41.4978C104.726 41.3061 104.467 41.2102 104.15 41.2102C103.932 41.2102 103.728 41.2682 103.539 41.3842C103.352 41.5002 103.2 41.6612 103.084 41.8671C102.971 42.0707 102.914 42.3063 102.914 42.5738V45.9829H102.076Z" fill="white"/>
<path d="M110.767 45.9829V40.5284H111.605V45.9829H110.767ZM111.193 39.6193C111.03 39.6193 110.889 39.5636 110.771 39.4524C110.655 39.3411 110.597 39.2073 110.597 39.0511C110.597 38.8948 110.655 38.7611 110.771 38.6498C110.889 38.5385 111.03 38.4829 111.193 38.4829C111.357 38.4829 111.496 38.5385 111.612 38.6498C111.731 38.7611 111.79 38.8948 111.79 39.0511C111.79 39.2073 111.731 39.3411 111.612 39.4524C111.496 39.5636 111.357 39.6193 111.193 39.6193Z" fill="white"/>
<path d="M116.578 43.7528V40.5284H117.416V45.9829H116.578V45.0596H116.521C116.393 45.3366 116.194 45.5722 115.924 45.7663C115.654 45.9581 115.313 46.0539 114.901 46.0539C114.561 46.0539 114.258 45.9794 113.992 45.8302C113.727 45.6787 113.519 45.4514 113.367 45.1484C113.216 44.843 113.14 44.4583 113.14 43.9943V40.5284H113.978V43.9375C113.978 44.3352 114.089 44.6524 114.312 44.8892C114.537 45.1259 114.823 45.2443 115.171 45.2443C115.38 45.2443 115.592 45.191 115.807 45.0845C116.025 44.9779 116.207 44.8146 116.354 44.5944C116.503 44.3742 116.578 44.0937 116.578 43.7528Z" fill="white"/>
<path d="M118.951 45.9829V40.5284H119.76V41.3806H119.831C119.945 41.0894 120.128 40.8634 120.382 40.7024C120.635 40.539 120.939 40.4573 121.294 40.4573C121.654 40.4573 121.954 40.539 122.193 40.7024C122.434 40.8634 122.623 41.0894 122.757 41.3806H122.814C122.954 41.0989 123.163 40.8752 123.443 40.7095C123.722 40.5414 124.057 40.4573 124.448 40.4573C124.935 40.4573 125.334 40.61 125.645 40.9154C125.955 41.2185 126.11 41.6908 126.11 42.3323V45.9829H125.272V42.3323C125.272 41.9299 125.162 41.6422 124.941 41.4694C124.721 41.2966 124.462 41.2102 124.164 41.2102C123.78 41.2102 123.483 41.3262 123.272 41.5582C123.062 41.7878 122.956 42.079 122.956 42.4318V45.9829H122.104V42.2471C122.104 41.937 122.003 41.6872 121.802 41.4978C121.601 41.3061 121.342 41.2102 121.025 41.2102C120.807 41.2102 120.603 41.2682 120.414 41.3842C120.227 41.5002 120.075 41.6612 119.959 41.8671C119.846 42.0707 119.789 42.3063 119.789 42.5738V45.9829H118.951Z" fill="white"/>
</svg>
