<svg width="145" height="65" viewBox="0 0 145 65" fill="none" xmlns="http://www.w3.org/2000/svg">
<rect width="145" height="65" fill="#006EFF"/>
<path d="M61.9453 21.7514C61.2358 21.7201 60.5279 21.8435 59.8668 22.1139C59.2057 22.3843 58.6059 22.7957 58.106 23.3217C57.6061 23.8478 57.217 24.4769 56.9635 25.1688C56.7101 25.8607 56.5979 26.6001 56.6342 27.3398C56.6342 30.6894 58.9947 32.9282 62.3939 32.9282C63.3252 32.9401 64.2497 32.7608 65.1147 32.4005L66.5634 29.8714L66.3715 29.7543C65.2192 30.4049 63.9345 30.7592 62.6243 30.7876C60.8698 30.7876 59.3491 29.8622 59.1807 28.2616H66.9441V27.5295C66.9441 23.8286 64.793 21.7435 61.9518 21.7435M59.1801 26.2668C59.193 25.9203 59.2715 25.5798 59.4109 25.265C59.5503 24.9501 59.7479 24.6671 59.9924 24.4321C60.2369 24.1971 60.5236 24.0148 60.8358 23.8956C61.1481 23.7765 61.4798 23.7228 61.812 23.7377C63.4051 23.7377 64.3819 24.7137 64.4 26.2668H59.1801ZM114.845 21.7527C114.136 21.7208 113.428 21.844 112.766 22.1142C112.105 22.3844 111.505 22.7958 111.005 23.3219C110.505 23.848 110.116 24.4773 109.863 25.1694C109.609 25.8615 109.497 26.6012 109.534 27.341C109.534 30.6906 111.895 32.9294 115.294 32.9294C116.223 32.9414 117.146 32.7621 118.009 32.4018L119.463 29.8726L119.272 29.7646C118.118 30.4152 116.832 30.7694 115.521 30.798C113.767 30.798 112.252 29.8726 112.081 28.2719H119.838C120.175 24.1018 118.029 21.752 114.846 21.752M112.075 26.2766C112.088 25.9305 112.166 25.5904 112.305 25.2758C112.444 24.9612 112.641 24.6783 112.885 24.4433C113.129 24.2084 113.415 24.026 113.727 23.9065C114.038 23.7871 114.37 23.733 114.701 23.7474C116.295 23.7474 117.271 24.7235 117.292 26.2766H112.075ZM79.2648 21.752C78.5553 21.7207 77.8473 21.8442 77.1862 22.1146C76.5251 22.385 75.9254 22.7963 75.4255 23.3224C74.9256 23.8484 74.5364 24.4775 74.283 25.1694C74.0295 25.8613 73.9174 26.6007 73.9537 27.3404C73.9537 30.69 76.3142 32.9288 79.7134 32.9288C80.6447 32.941 81.5692 32.7617 82.4341 32.4011L83.8828 29.872L83.6881 29.764C82.5372 30.4148 81.2538 30.7691 79.945 30.7974C78.1904 30.7974 76.6698 29.872 76.5013 28.2713H84.2677C84.604 24.1012 82.4546 21.7514 79.2695 21.7514M76.5019 26.2759C76.5148 25.9294 76.5933 25.589 76.7327 25.2741C76.8721 24.9593 77.0697 24.6762 77.3142 24.4412C77.5588 24.2063 77.8454 24.024 78.1576 23.9048C78.4699 23.7856 78.8016 23.7319 79.1338 23.7468C80.724 23.7468 81.7036 24.7228 81.7218 26.2759H76.5019ZM26.6619 24.3885V24.3452C27.4077 24.1699 28.0735 23.7333 28.5481 23.1082C29.0228 22.483 29.2777 21.707 29.2704 20.9096C29.2704 18.0474 26.9362 16.9622 24.6704 16.9622H17V17.1964L17.772 17.8809C18.6984 18.6702 18.8166 18.8215 18.8166 19.534V32.6665H24.2312C27.0695 32.6665 29.9172 31.6026 29.9172 28.1853C29.9347 27.2425 29.6099 26.3277 29.0079 25.6242C28.4059 24.9206 27.5713 24.4804 26.6712 24.3916M21.487 19.3553H23.6914C25.1845 19.3553 25.6448 19.5712 26.0963 20.0214C26.2661 20.198 26.3985 20.4098 26.485 20.643C26.5714 20.8763 26.61 21.1259 26.5981 21.3757C26.6039 21.6196 26.5609 21.8621 26.472 22.0878C26.3831 22.3134 26.2502 22.5174 26.0817 22.6866C25.639 23.1307 25.029 23.3466 23.9247 23.3466H21.4876L21.487 19.3553ZM23.9481 30.2673H21.487V25.7452H24.054C26.218 25.7452 27.2351 26.3217 27.2351 27.9626C27.2351 30.0257 25.3231 30.2697 23.9481 30.2697M34.9611 18.4049C34.9811 18.7464 34.9023 19.0863 34.735 19.3805C34.5677 19.6748 34.3194 19.9099 34.0225 20.0553C33.7256 20.2007 33.3937 20.2498 33.0697 20.1961C32.7457 20.1425 32.4447 19.9886 32.2056 19.7544C31.9664 19.5202 31.8002 19.2165 31.7285 18.8827C31.6568 18.5488 31.6828 18.2002 31.8033 17.882C31.9238 17.5637 32.1331 17.2906 32.4041 17.0979C32.6751 16.9051 32.9954 16.8018 33.3234 16.8011C33.5333 16.7893 33.7433 16.8216 33.941 16.8961C34.1386 16.9706 34.3199 17.0858 34.4741 17.2349C34.6282 17.3839 34.752 17.5637 34.8382 17.7637C34.9244 17.9636 34.9711 18.1796 34.9757 18.3988M30.6851 22.0198H34.6008V32.661H32.0514V24.2867C32.0514 23.4076 32.004 23.2661 31.0893 22.5286L30.6851 22.1925V22.0198ZM50.9505 16.4931L51.75 17.0299C52.4758 17.5142 52.5852 17.7454 52.5852 18.4207V23.3552H52.5232C52.1095 22.8206 51.5807 22.3954 50.9798 22.114C50.3789 21.8327 49.7229 21.7033 49.065 21.7362C46.1588 21.7362 44.1404 24.1763 44.1404 27.3246C44.1404 30.4729 46.0319 32.913 49.1702 32.913C49.8582 32.9502 50.5435 32.799 51.158 32.4743C51.7725 32.1496 52.2948 31.6627 52.673 31.0622H52.7145L52.98 32.6598H55.1311V16.3015H50.9511L50.9505 16.4931ZM49.6791 30.5235C49.0709 30.5372 48.4727 30.3616 47.9607 30.0192C47.4486 29.6768 47.046 29.183 46.8042 28.6009C46.5623 28.0188 46.4922 27.3747 46.6028 26.7509C46.7134 26.127 46.9997 25.5517 47.4251 25.0983C47.8505 24.6449 48.3958 24.3339 48.9914 24.2051C49.587 24.0763 50.2058 24.1354 50.7691 24.375C51.3323 24.6146 51.8143 25.0238 52.1536 25.5503C52.4929 26.0768 52.6741 26.6969 52.6741 27.3313C52.6879 27.7486 52.6204 28.1645 52.4756 28.5538C52.3308 28.9431 52.1118 29.2977 51.8318 29.5961C51.5518 29.8946 51.2166 30.1306 50.8466 30.29C50.4766 30.4494 50.0794 30.5289 49.6791 30.5235ZM103.763 16.4931L104.117 16.7371C105.345 17.5484 105.498 17.7827 105.498 19.1674V23.3704H105.433C105.019 22.8361 104.49 22.4111 103.889 22.1298C103.288 21.8485 102.632 21.7189 101.974 21.7514C99.0681 21.7514 97.0527 24.1915 97.0527 27.3398C97.0527 30.4881 98.9412 32.9282 102.069 32.9282C102.757 32.9662 103.443 32.8153 104.057 32.4906C104.672 32.1658 105.194 31.6785 105.572 31.0774H105.616L105.885 32.675H108.036V16.3015H103.758L103.763 16.4931ZM102.583 30.5235C101.974 30.5378 101.376 30.3628 100.863 30.0207C100.351 29.6787 99.9479 29.1851 99.7057 28.6031C99.4634 28.021 99.3928 27.3769 99.5031 26.7529C99.6133 26.1288 99.8994 25.5532 100.325 25.0995C100.75 24.6457 101.295 24.3345 101.891 24.2054C102.487 24.0763 103.106 24.1353 103.669 24.3748C104.232 24.6143 104.714 25.0234 105.054 25.55C105.393 26.0766 105.575 26.6967 105.575 27.3313C105.589 27.7485 105.522 28.1644 105.377 28.5538C105.233 28.9432 105.014 29.298 104.734 29.5966C104.455 29.8953 104.12 30.1316 103.75 30.2914C103.38 30.4511 102.983 30.5309 102.583 30.5259M127.994 21.8905V24.4624C127.594 24.3434 127.182 24.276 126.766 24.2617C126.414 24.2373 126.061 24.2887 125.73 24.4127C125.398 24.5367 125.094 24.7307 124.837 24.9824C124.58 25.2342 124.376 25.5385 124.236 25.8763C124.097 26.214 124.026 26.5781 124.028 26.9457V32.6451H121.484V24.7954C121.484 23.4571 121.416 23.2533 120.38 22.5719L119.74 22.1309V22.0137H124.033V23.7041H124.078C124.344 23.109 124.771 22.6075 125.306 22.2609C125.841 21.9143 126.461 21.7375 127.091 21.752C127.4 21.7592 127.707 21.8112 128.002 21.9064M71.4622 21.9735H73.8227V24.2428H71.4622V32.661H68.9069V25.1578C68.9069 24.2665 68.7355 24.0689 67.7267 23.2332L66.4283 22.129V21.9735H68.9098V20.0336C68.9098 17.144 70.713 15.3084 74.6134 16.1228L75.2035 18.3799L75.0795 18.4848C73.0407 17.646 71.4622 18.1761 71.4622 20.0269V21.9735ZM95.5812 25.9386V32.661H93.0347V26.7383C93.0347 25.5665 92.7423 24.1476 90.969 24.1476C89.2928 24.1476 88.6348 25.4335 88.6348 26.8524V32.661H86.0913V24.7918C86.0913 23.4534 86.0234 23.2496 84.9876 22.5683L84.3683 22.1272V22.0101H88.529V23.6327H88.5705C88.9211 23.0641 89.4008 22.5944 89.9669 22.2652C90.5331 21.936 91.1684 21.7574 91.8165 21.7453C94.2214 21.7453 95.6081 23.4662 95.6081 25.9337M43.3538 30.5229L43.4363 30.5784C43.4363 30.5784 42.1706 32.694 42.1735 32.694C40.1078 33.2832 37.7655 32.6567 37.7655 29.1778V24.8601C37.7655 24.1726 37.659 24.2092 36.2314 22.9788L35.3079 22.1431V22.0168H37.7807L38.71 18.9356H40.3242V22.0198H43.0479V24.2769H40.3242V29.1034C40.3242 31.0249 41.584 31.0713 43.3573 30.5223" fill="white"/>
<path d="M45.7715 40.8739V42.1483H43.6182V48.0711H42.1045V42.1483H39.9414V40.8739H45.7715Z" fill="white"/>
<path d="M50.2393 43.4227C50.6885 43.9859 50.9131 44.6515 50.9131 45.4198C50.9131 46.201 50.6885 46.87 50.2393 47.4266C49.79 47.98 49.1081 48.2567 48.1934 48.2567C47.2786 48.2567 46.5967 47.98 46.1475 47.4266C45.6982 46.87 45.4736 46.201 45.4736 45.4198C45.4736 44.6515 45.6982 43.9859 46.1475 43.4227C46.5967 42.8596 47.2786 42.578 48.1934 42.578C49.1081 42.578 49.79 42.8596 50.2393 43.4227ZM48.1885 43.7547C47.7816 43.7547 47.4674 43.8996 47.2461 44.1893C47.028 44.4758 46.9189 44.8859 46.9189 45.4198C46.9189 45.9536 47.028 46.3654 47.2461 46.6551C47.4674 46.9448 47.7816 47.0897 48.1885 47.0897C48.5954 47.0897 48.9079 46.9448 49.126 46.6551C49.3441 46.3654 49.4531 45.9536 49.4531 45.4198C49.4531 44.8859 49.3441 44.4758 49.126 44.1893C48.9079 43.8996 48.5954 43.7547 48.1885 43.7547Z" fill="white"/>
<path d="M54.3506 47.0799V48.12L53.6914 48.1444C53.0339 48.1672 52.5846 48.0532 52.3438 47.8026C52.1875 47.6431 52.1094 47.3973 52.1094 47.0653V43.7889H51.3672V42.7977H52.1094V41.3133H53.4863V42.7977H54.3506V43.7889H53.4863V46.6014C53.4863 46.8195 53.514 46.9562 53.5693 47.0116C53.6247 47.0637 53.7939 47.0897 54.0771 47.0897C54.1195 47.0897 54.1634 47.0897 54.209 47.0897C54.2578 47.0864 54.305 47.0832 54.3506 47.0799Z" fill="white"/>
<path d="M55.4443 43.3251C55.8122 42.8563 56.4437 42.6219 57.3389 42.6219C57.9215 42.6219 58.4391 42.7375 58.8916 42.9686C59.3441 43.1997 59.5703 43.6359 59.5703 44.2772V46.7186C59.5703 46.8879 59.5736 47.093 59.5801 47.3338C59.5898 47.5161 59.6175 47.6398 59.6631 47.7049C59.7087 47.77 59.777 47.8237 59.8682 47.8661V48.0711H58.3545C58.3122 47.9637 58.2829 47.8628 58.2666 47.7684C58.2503 47.674 58.2373 47.5666 58.2275 47.4461C58.0355 47.6545 57.8141 47.8319 57.5635 47.9784C57.264 48.1509 56.9255 48.2372 56.5479 48.2372C56.0661 48.2372 55.6673 48.1004 55.3516 47.827C55.0391 47.5503 54.8828 47.1597 54.8828 46.6551C54.8828 46.0008 55.1351 45.5272 55.6396 45.2342C55.9163 45.0747 56.3232 44.9608 56.8604 44.8924L57.334 44.8338C57.5911 44.8013 57.7751 44.7606 57.8857 44.7118C58.0843 44.6271 58.1836 44.4953 58.1836 44.3163C58.1836 44.0982 58.1071 43.9484 57.9541 43.867C57.8044 43.7824 57.583 43.7401 57.29 43.7401C56.9613 43.7401 56.7285 43.8215 56.5918 43.9842C56.4941 44.1047 56.429 44.2674 56.3965 44.4725H55.0537C55.083 44.007 55.2132 43.6245 55.4443 43.3251ZM56.4795 47.0653C56.6097 47.1727 56.7692 47.2264 56.958 47.2264C57.2575 47.2264 57.5326 47.1385 57.7832 46.9627C58.0371 46.787 58.1689 46.4663 58.1787 46.0008V45.4833C58.0908 45.5386 58.0013 45.5842 57.9102 45.62C57.8223 45.6525 57.7002 45.6834 57.5439 45.7127L57.2314 45.7713C56.9385 45.8234 56.7285 45.8869 56.6016 45.9618C56.3867 46.0887 56.2793 46.2857 56.2793 46.5526C56.2793 46.7902 56.346 46.9611 56.4795 47.0653Z" fill="white"/>
<path d="M60.8398 40.8739H62.2314V48.0711H60.8398V40.8739Z" fill="white"/>
<path d="M69.1016 47.0311C69.4564 47.0311 69.7445 46.992 69.9658 46.9139C70.3857 46.7642 70.5957 46.4859 70.5957 46.079C70.5957 45.8413 70.4915 45.6574 70.2832 45.5272C70.0749 45.4002 69.7477 45.2879 69.3018 45.1903L68.54 45.0194C67.7913 44.8501 67.2738 44.6662 66.9873 44.4676C66.5023 44.1356 66.2598 43.6164 66.2598 42.91C66.2598 42.2655 66.4941 41.73 66.9629 41.3036C67.4316 40.8771 68.1201 40.6639 69.0283 40.6639C69.7868 40.6639 70.4329 40.8657 70.9668 41.2694C71.5039 41.6698 71.7855 42.2525 71.8115 43.0174H70.3662C70.3402 42.5845 70.1514 42.2769 69.7998 42.0946C69.5654 41.9741 69.2741 41.9139 68.9258 41.9139C68.5384 41.9139 68.2292 41.992 67.998 42.1483C67.7669 42.3045 67.6514 42.5226 67.6514 42.8026C67.6514 43.0598 67.7653 43.2518 67.9932 43.3788C68.1396 43.4634 68.4521 43.5627 68.9307 43.6766L70.1709 43.9745C70.7145 44.1047 71.1247 44.2788 71.4014 44.4969C71.8311 44.8355 72.0459 45.3254 72.0459 45.9667C72.0459 46.6242 71.7936 47.1711 71.2891 47.6073C70.7878 48.0402 70.0781 48.2567 69.1602 48.2567C68.2227 48.2567 67.4854 48.0435 66.9482 47.617C66.4111 47.1874 66.1426 46.5982 66.1426 45.8495H67.5781C67.6237 46.1782 67.7132 46.424 67.8467 46.5868C68.0908 46.883 68.5091 47.0311 69.1016 47.0311Z" fill="white"/>
<path d="M77.6025 46.5086C77.5667 46.8244 77.4023 47.145 77.1094 47.4706C76.6536 47.9881 76.0156 48.2469 75.1953 48.2469C74.5182 48.2469 73.9209 48.0288 73.4033 47.5926C72.8857 47.1564 72.627 46.4468 72.627 45.4637C72.627 44.5425 72.8597 43.8361 73.3252 43.3446C73.7939 42.853 74.401 42.6073 75.1465 42.6073C75.5892 42.6073 75.988 42.6903 76.3428 42.8563C76.6976 43.0223 76.9906 43.2844 77.2217 43.6424C77.43 43.9582 77.5651 44.3244 77.627 44.7411C77.6628 44.9852 77.6774 45.3368 77.6709 45.7958H74.0283C74.0479 46.3296 74.2155 46.704 74.5312 46.9188C74.7233 47.0523 74.9544 47.119 75.2246 47.119C75.5111 47.119 75.7438 47.0376 75.9229 46.8749C76.0205 46.787 76.1068 46.6649 76.1816 46.5086H77.6025ZM76.2256 44.8778C76.2028 44.5099 76.0905 44.2316 75.8887 44.0428C75.6901 43.8508 75.4427 43.7547 75.1465 43.7547C74.8242 43.7547 74.5736 43.8556 74.3945 44.0575C74.2188 44.2593 74.1081 44.5327 74.0625 44.8778H76.2256Z" fill="white"/>
<path d="M83.2178 44.6581H81.792C81.7659 44.4595 81.6992 44.2805 81.5918 44.1209C81.4355 43.9061 81.193 43.7987 80.8643 43.7987C80.3955 43.7987 80.0749 44.0314 79.9023 44.4969C79.8112 44.7443 79.7656 45.0731 79.7656 45.4833C79.7656 45.8739 79.8112 46.188 79.9023 46.4256C80.0684 46.8683 80.3809 47.0897 80.8398 47.0897C81.1654 47.0897 81.3965 47.0018 81.5332 46.826C81.6699 46.6502 81.7529 46.4224 81.7822 46.1424H83.2031C83.1706 46.5656 83.0176 46.966 82.7441 47.3436C82.3079 47.9523 81.6618 48.2567 80.8057 48.2567C79.9495 48.2567 79.3197 48.0028 78.916 47.495C78.5124 46.9872 78.3105 46.328 78.3105 45.5174C78.3105 44.6027 78.5335 43.8915 78.9795 43.3836C79.4255 42.8758 80.0407 42.6219 80.8252 42.6219C81.4925 42.6219 82.0378 42.7717 82.4609 43.0711C82.8874 43.3706 83.1396 43.8996 83.2178 44.6581Z" fill="white"/>
<path d="M87.5928 47.3192C87.5798 47.3355 87.5472 47.3843 87.4951 47.4657C87.443 47.5471 87.3812 47.6187 87.3096 47.6805C87.0915 47.8758 86.8799 48.0093 86.6748 48.0809C86.473 48.1525 86.2354 48.1883 85.9619 48.1883C85.1742 48.1883 84.6436 47.9051 84.3701 47.3387C84.2171 47.0262 84.1406 46.5656 84.1406 45.9569V42.7489H85.5664V45.9569C85.5664 46.2596 85.6022 46.4875 85.6738 46.6405C85.8008 46.9107 86.0498 47.0458 86.4209 47.0458C86.8962 47.0458 87.2217 46.8537 87.3975 46.4696C87.4886 46.2612 87.5342 45.9862 87.5342 45.6444V42.7489H88.9453V48.0711H87.5928V47.3192Z" fill="white"/>
<path d="M92.9688 44.0331C92.4089 44.0331 92.0329 44.2153 91.8408 44.5799C91.7334 44.785 91.6797 45.1008 91.6797 45.5272V48.0711H90.2783V42.7489H91.6064V43.6766C91.8213 43.3218 92.0085 43.0793 92.168 42.9491C92.4284 42.731 92.7669 42.6219 93.1836 42.6219C93.2096 42.6219 93.2308 42.6236 93.2471 42.6268C93.2666 42.6268 93.3073 42.6284 93.3691 42.6317V44.0575C93.2812 44.0477 93.2031 44.0412 93.1348 44.0379C93.0664 44.0347 93.0111 44.0331 92.9688 44.0331Z" fill="white"/>
<path d="M95.6201 42.7489V48.0711H94.209V42.7489H95.6201ZM95.6201 40.8299V42.1141H94.209V40.8299H95.6201Z" fill="white"/>
<path d="M99.4092 47.0799V48.12L98.75 48.1444C98.0924 48.1672 97.6432 48.0532 97.4023 47.8026C97.2461 47.6431 97.168 47.3973 97.168 47.0653V43.7889H96.4258V42.7977H97.168V41.3133H98.5449V42.7977H99.4092V43.7889H98.5449V46.6014C98.5449 46.8195 98.5726 46.9562 98.6279 47.0116C98.6833 47.0637 98.8525 47.0897 99.1357 47.0897C99.1781 47.0897 99.222 47.0897 99.2676 47.0897C99.3164 47.0864 99.3636 47.0832 99.4092 47.0799Z" fill="white"/>
<path d="M102.466 46.6747L103.564 42.7489H105.044L103.218 47.9833C102.866 48.9924 102.588 49.6174 102.383 49.8583C102.178 50.1024 101.768 50.2245 101.152 50.2245C101.029 50.2245 100.929 50.2228 100.854 50.2196C100.78 50.2196 100.667 50.2147 100.518 50.2049V49.0917L100.693 49.1014C100.83 49.1079 100.96 49.103 101.084 49.0868C101.208 49.0705 101.312 49.0331 101.396 48.9745C101.478 48.9191 101.553 48.8036 101.621 48.6278C101.693 48.452 101.722 48.3446 101.709 48.3055L99.7559 42.7489H101.304L102.466 46.6747Z" fill="white"/>
</svg>
