<svg width="145" height="65" viewBox="0 0 145 65" fill="none" xmlns="http://www.w3.org/2000/svg">
<g clip-path="url(#clip0_2_91)">
<rect width="145" height="65" fill="white"/>
<rect x="-16" y="-11" width="191" height="93" fill="#C01818"/>
<path d="M70.9437 36.1399L68.0089 34.4212L67.7993 34.7597C67.1443 35.8014 66.2271 36.3221 65.1004 36.3221C63.1614 36.3221 61.7202 34.8639 61.7202 32.9629C61.7202 31.036 63.1876 29.6038 65.1004 29.6038C66.2533 29.6038 67.0919 30.0985 67.7993 31.1661L68.0089 31.5047L70.9437 29.786L70.6817 29.4215C69.2667 27.3904 67.4587 26.4269 65.0742 26.4269C60.5935 26.4269 58.1827 29.8121 58.1827 32.989C58.1827 36.1659 60.5935 39.5511 65.0742 39.5511C67.3539 39.5511 69.5025 38.4053 70.6817 36.5305L70.9437 36.1399Z" fill="white"/>
<path d="M70.7864 39.499H74.8217L76.0271 36.5304H82.08L83.2853 39.499H87.3468L80.1148 22.1302H76.4987L77.4682 24.4478L70.7864 39.499ZM79.0928 28.9788L80.7174 33.0671H77.4158L79.0928 28.9788Z" fill="white"/>
<path d="M89.0238 39.5245H92.5613V31.7125H94.8671V28.4314H92.5613V26.895C92.5613 26.218 93.0066 25.5149 93.8455 25.5149C94.291 25.5149 94.5786 25.593 94.8407 25.6972L95.2341 25.8534L96.7012 22.6505L96.2821 22.4682C95.6267 22.2078 94.71 22.1036 94.0546 22.1036C92.4565 22.1036 91.1201 22.6244 90.2292 23.614C89.4431 24.4733 88.9976 25.6711 88.9976 26.9992V28.4054H87.4255V31.6864H88.9976L89.0238 39.5245Z" fill="white"/>
<path d="M41.4913 22.0258V39.4988H45.3431V29.4993L49.0902 32.2596L52.811 29.4993V39.4988H56.6629L56.6891 22.0258L49.0902 27.7286L41.4913 22.0258Z" fill="white"/>
<path d="M102.885 26.4527C98.4311 26.4527 96.0201 29.8119 96.0201 32.9887C96.0201 36.1657 98.4311 39.5248 102.885 39.5248C104.929 39.4988 106.842 38.5874 108.335 36.8948L105.453 35.3324C104.719 36.0875 103.803 36.4782 102.807 36.4782C101.34 36.4782 100.055 35.5147 99.7147 34.2387H109.358V33.3793C109.358 28.614 105.558 26.4527 102.885 26.4527ZM99.7932 31.3743C100.265 30.1764 101.26 29.4994 102.545 29.4994C103.855 29.4994 104.876 30.1764 105.4 31.4003L99.7932 31.3743Z" fill="white"/>
<path d="M117.375 26.4527C112.921 26.4527 110.51 29.8119 110.51 32.9887C110.51 36.1657 112.921 39.5248 117.375 39.5248C119.419 39.4988 121.333 38.5874 122.826 36.8948L119.943 35.3324C119.21 36.0875 118.293 36.4782 117.297 36.4782C115.83 36.4782 114.546 35.5147 114.205 34.2387H123.848V33.3793C123.848 28.614 120.075 26.4527 117.375 26.4527ZM114.284 31.3743C114.755 30.1764 115.751 29.4734 117.035 29.4994C118.345 29.4994 119.367 30.1764 119.891 31.4003L114.284 31.3743Z" fill="white"/>
<path fill-rule="evenodd" clip-rule="evenodd" d="M24.3298 26.371L15 22V39.3948L24.3218 43.7696L33.6596 39.3948V22L24.3298 26.371ZM24.3298 30.6416L24.3378 30.6453V30.6378L29.8116 28.0674V36.921L24.3298 39.4952L18.848 36.921V28.0674L24.3218 30.6378V30.6453L24.3298 30.6416Z" fill="white"/>
<path d="M126.096 26.5973V27.1008H125.255V29.7073H124.621V27.1008H123.78V26.5973H126.096Z" fill="white"/>
<path d="M130 26.5973V29.7073H129.367V27.6845L128.521 29.7073H128.042L127.191 27.6845V29.7073H126.558V26.5973H127.277L128.281 28.9097L129.286 26.5973H130Z" fill="white"/>
</g>
<defs>
<clipPath id="clip0_2_91">
<rect width="145" height="65" fill="white"/>
</clipPath>
</defs>
</svg>
