<svg xmlns="http://www.w3.org/2000/svg" width="100%" height="100%" viewBox="0 0 160 48" fill="none">
    <path d="M152.28 19.693C152.28 19.3123 152.436 18.9316 152.705 18.6631C152.973 18.3946 153.354 18.2383 153.735 18.2383C154.115 18.2383 154.496 18.3946 154.765 18.6631C155.033 18.9316 155.189 19.3123 155.189 19.693C155.189 19.8947 155.144 20.0737 155.077 20.2527C155.01 20.4318 154.898 20.5881 154.763 20.723C154.628 20.8578 154.472 20.9688 154.293 21.0369C154.114 21.1037 153.935 21.149 153.733 21.149C153.532 21.149 153.353 21.1037 153.174 21.0369C152.995 20.97 152.838 20.8578 152.703 20.723C152.569 20.5881 152.458 20.4318 152.39 20.2527C152.3 20.0737 152.277 19.872 152.277 19.693H152.28ZM152.548 19.693C152.548 19.8494 152.571 20.0069 152.638 20.1406C152.705 20.2754 152.773 20.4091 152.884 20.5213C152.995 20.6335 153.13 20.723 153.264 20.7898C153.399 20.8566 153.556 20.8793 153.712 20.8793C154.026 20.8793 154.338 20.7444 154.54 20.5213C154.765 20.2969 154.875 20.0069 154.875 19.6703C154.875 19.3565 154.741 19.0438 154.54 18.8194C154.316 18.595 154.026 18.4614 153.712 18.4614C153.556 18.4614 153.398 18.4841 153.264 18.5509C153.13 18.6177 152.996 18.7072 152.884 18.8194C152.772 18.9316 152.682 19.0652 152.638 19.2001C152.571 19.3791 152.548 19.5355 152.548 19.693ZM153.51 20.5213H153.175V18.8648H153.824C154.138 18.8648 154.428 19.0438 154.428 19.3791C154.428 19.4913 154.405 19.5808 154.338 19.6703C154.272 19.7598 154.204 19.8267 154.093 19.8494L154.428 20.5213H154.047L153.733 19.9174H153.488V20.5213H153.51ZM153.801 19.1774H153.51V19.5808H153.801C153.936 19.5808 154.07 19.5355 154.07 19.3791C154.07 19.2228 153.935 19.1774 153.801 19.1774Z" fill="currentColor"/>
    <path fill-rule="evenodd" clip-rule="evenodd" d="M9.86867 37.3319C7.7874 34.4665 6.66797 30.9973 6.66797 27.46C6.66797 18.1705 14.1888 10.6484 23.4569 10.6484C32.7249 10.6484 40.2458 18.1693 40.2458 27.46C40.2458 30.9973 39.1263 34.4665 37.0451 37.3319L28.9859 24.2139L28.2018 25.5351L28.9859 29.206L23.4569 19.7148L20.0318 25.5124L20.8373 29.206L17.9278 24.2366L9.86867 37.3319Z" fill="#FF5D01"/>
    <path d="M52.5315 22.252V31.1771H49.8867V18.2344H52.945L58.5648 26.6805V18.2344H61.2096V31.1771H58.4829L52.5328 22.252H52.5315Z" fill="currentColor"/>
    <path d="M67.2938 22.1523C69.9549 22.1523 72.0866 24.1025 72.0866 26.7309C72.0866 29.3593 69.9209 31.375 67.2597 31.375C64.5986 31.375 62.4492 29.4412 62.4492 26.7801C62.4492 24.1189 64.615 22.1523 67.2925 22.1523H67.2938ZM67.2774 29.0126C68.4838 29.0126 69.4431 28.0873 69.4431 26.7486C69.4431 25.4098 68.4674 24.5009 67.261 24.5009C66.0546 24.5009 65.0953 25.4262 65.0953 26.7486C65.0953 28.0709 66.071 29.0126 67.2774 29.0126Z" fill="currentColor"/>
    <path d="M78.9625 24.8803C78.6158 24.8135 78.2515 24.8135 78.1355 24.8135C76.8963 24.8135 76.0366 25.6733 76.0366 27.3095V31.1771H73.5078V22.3503H75.9547V23.6399H75.9874C76.4665 22.6314 77.359 22.252 78.2679 22.252C78.4658 22.252 78.7797 22.3011 78.9625 22.3515V24.8803Z" fill="currentColor"/>
    <path d="M86.5297 30.0547H86.4969C85.6699 31.2611 84.3476 31.3443 83.7525 31.3443C81.191 31.3443 79.5547 29.1294 79.5547 26.7494C79.5547 24.5181 81.2578 22.1872 83.7866 22.1872C84.2984 22.1872 85.5224 22.2868 86.4314 23.3608H86.4641V17.7246H89.0257V31.1792H86.5297V30.0547ZM84.3488 24.5168C83.1424 24.5168 82.1667 25.4257 82.1667 26.7481C82.1667 28.0705 83.1424 29.0122 84.3488 29.0122C85.5552 29.0122 86.5309 28.0869 86.5309 26.7481C86.5309 25.4093 85.5552 24.5168 84.3488 24.5168Z" fill="currentColor"/>
    <path d="M96.2851 26.615H94.2518V31.1771H91.5742V18.2344H96.3847C98.9803 18.2344 101.012 19.64 101.012 22.3831C101.012 25.1262 98.9955 26.615 96.2851 26.615ZM96.1528 20.7644H94.2518V24.1202H96.1692C97.2268 24.1202 98.3185 23.6575 98.3185 22.4511C98.3185 21.2447 97.2609 20.7657 96.1528 20.7657V20.7644Z" fill="currentColor"/>
    <path d="M107.228 24.8803C106.881 24.8135 106.517 24.8135 106.401 24.8135C105.162 24.8135 104.302 25.6733 104.302 27.3095V31.1771H101.773V22.3503H104.22V23.6399H104.253C104.732 22.6314 105.625 22.252 106.534 22.252C106.731 22.252 107.045 22.3011 107.228 22.3515V24.8803Z" fill="currentColor"/>
    <path d="M112.251 22.1523C114.912 22.1523 117.044 24.1025 117.044 26.7309C117.044 29.3593 114.878 31.375 112.217 31.375C109.556 31.375 107.406 29.4412 107.406 26.7801C107.406 24.1189 109.572 22.1523 112.25 22.1523H112.251ZM112.234 29.0126C113.441 29.0126 114.4 28.0873 114.4 26.7486C114.4 25.4098 113.424 24.5009 112.218 24.5009C111.012 24.5009 110.052 25.4262 110.052 26.7486C110.052 28.0709 111.028 29.0126 112.234 29.0126Z" fill="currentColor"/>
    <path d="M121.525 27.9376C121.525 28.6159 121.906 29.0621 122.764 29.0621C123.145 29.0621 123.211 29.0457 123.673 28.9966V31.0955C123.078 31.277 122.434 31.2934 122.137 31.2934C119.41 31.2934 118.946 29.5084 118.946 28.07V24.5819H117.227V22.3506H118.979V19.5898H121.524V22.3506H123.706V24.5819H121.524V27.9376H121.525Z" fill="currentColor"/>
    <path d="M127.144 27.4761C127.309 28.5842 128.251 29.212 129.326 29.212C130.07 29.212 130.897 28.7657 131.194 28.0384L133.31 28.7657C132.731 30.4688 131.095 31.3777 129.359 31.3777C126.681 31.3777 124.516 29.4931 124.516 26.75C124.516 24.2048 126.647 22.1387 129.194 22.1387C131.74 22.1387 133.591 23.9401 133.591 26.5521C133.591 26.866 133.591 27.1799 133.558 27.4774H127.145L127.144 27.4761ZM131.012 25.7743C130.962 25.1301 130.417 24.2376 129.127 24.2376C127.97 24.2376 127.309 25.1957 127.21 25.7743H131.012Z" fill="currentColor"/>
    <path d="M134.32 26.7801C134.32 24.1681 136.419 22.1523 139.131 22.1523C140.965 22.1523 142.966 23.1445 143.412 25.1602L141.065 25.8712C140.867 25.2106 140.188 24.516 139.082 24.516C137.975 24.516 136.966 25.343 136.966 26.7473C136.966 28.0533 137.826 28.995 139.098 28.995C140.223 28.995 140.883 28.3004 141.131 27.6234L143.479 28.3344C142.916 30.3678 140.966 31.3763 139.065 31.3763C136.288 31.3763 134.322 29.4097 134.322 26.7813L134.32 26.7801Z" fill="currentColor"/>
    <path d="M148.553 27.9376C148.553 28.6159 148.933 29.0621 149.792 29.0621C150.173 29.0621 150.238 29.0457 150.701 28.9966V31.0955C150.106 31.277 149.462 31.2934 149.164 31.2934C146.437 31.2934 145.973 29.5084 145.973 28.07V24.5819H144.254V22.3506H146.006V19.5898H148.551V22.3506H150.733V24.5819H148.551V27.9376H148.553Z" fill="currentColor"/>
</svg>