<svg width="145" height="65" viewBox="0 0 145 65" fill="none" xmlns="http://www.w3.org/2000/svg">
<g clip-path="url(#clip0_4_149)">
<rect width="145" height="65" fill="white"/>
<rect x="-14" y="-22" width="171" height="103" fill="white"/>
<path fill-rule="evenodd" clip-rule="evenodd" d="M69.5247 24.6209C71.0928 24.6209 72.502 24.9395 73.7528 25.5765C75.003 26.2135 75.9885 27.137 76.7091 28.3473C77.4294 29.5574 77.79 31.0121 77.79 32.7106V33.2201C77.79 34.9191 77.4294 36.3731 76.7091 37.5834C75.9885 38.7937 75.003 39.7173 73.7528 40.3543C72.502 40.9912 71.0928 41.3096 69.5247 41.3096C67.9561 41.3096 66.547 40.9912 65.2967 40.3543C64.046 39.7173 63.0606 38.7937 62.3403 37.5834C61.6195 36.3731 61.2595 34.9191 61.2595 33.2201V32.7106C61.2595 31.0121 61.6195 29.5574 62.3403 28.3473C63.0606 27.137 64.046 26.2135 65.2967 25.5765C66.547 24.9395 67.9561 24.6209 69.5247 24.6209ZM108.774 24.6209C110.342 24.6209 111.751 24.9395 113.002 25.5765C114.252 26.2135 115.238 27.137 115.958 28.3473C116.679 29.5574 117.039 31.0121 117.039 32.7106V33.2201C117.039 34.9191 116.679 36.3731 115.958 37.5834C115.238 38.7937 114.252 39.7173 113.002 40.3543C111.751 40.9912 110.342 41.3096 108.774 41.3096C107.205 41.3096 105.796 40.9912 104.546 40.3543C103.295 39.7173 102.31 38.7937 101.589 37.5834C100.869 36.3731 100.509 34.9191 100.509 33.2201V32.7106C100.509 31.0121 100.869 29.5574 101.589 28.3473C102.31 27.137 103.295 26.2135 104.546 25.5765C105.796 24.9395 107.205 24.6209 108.774 24.6209ZM53.033 24.8121C54.2619 24.8121 55.3378 25.0938 56.2597 25.6561C57.1816 26.219 57.8968 26.9938 58.4054 27.9811C58.9141 28.9684 59.1683 30.1203 59.1683 31.4366V40.8638H55.1629V31.755C55.1629 30.5663 54.8713 29.6745 54.2887 29.0798C53.7056 28.4856 52.8741 28.1881 51.7931 28.1881C50.5639 28.1881 49.6101 28.5971 48.9321 29.4142C48.2537 30.2319 47.9149 31.3729 47.9149 32.838V40.8638H43.9094V25.0669H47.8513V27.137H48.4236C48.6778 26.5852 49.1547 26.0597 49.854 25.5605C50.5535 25.062 51.6128 24.8121 53.033 24.8121ZM95.4926 20.1621V25.0669H99.8162V28.3792H95.4926V36.5961C95.4926 37.2332 95.7892 37.5515 96.3829 37.5515H99.4347V40.8638H94.9841C93.9455 40.8638 93.103 40.5404 92.4568 39.8925C91.8101 39.245 91.4872 38.3797 91.4872 37.2967V28.3792H87.3835C86.2253 28.405 85.5287 28.841 84.872 29.3823C84.215 29.9238 83.8866 30.7574 83.8866 31.8826V40.8638H79.8811V25.0669H83.823V26.8504H84.3953C84.6281 26.2135 85.038 25.7849 85.5785 25.4873C86.1189 25.1903 86.7262 25.0669 87.447 25.0669H91.4872V20.1621H95.4926ZM128.254 24.8121C129.483 24.8121 130.559 25.0938 131.481 25.6561C132.402 26.219 133.118 26.9938 133.626 27.9811C134.135 28.9684 134.389 30.1203 134.389 31.4366V40.8638H130.384V31.755C130.384 30.5663 130.092 29.6745 129.509 29.0798C128.926 28.4856 128.095 28.1881 127.014 28.1881C125.785 28.1881 124.831 28.5971 124.153 29.4142C123.475 30.2319 123.136 31.3729 123.136 32.838V40.8638H119.13V25.0669H123.072V27.137H123.644C123.899 26.5852 124.376 26.0597 125.075 25.5605C125.774 25.062 126.834 24.8121 128.254 24.8121ZM69.5247 28.1881C68.2954 28.1881 67.2781 28.5861 66.473 29.3823C65.6672 30.1787 65.2649 31.3201 65.2649 32.806V33.1245C65.2649 34.611 65.6672 35.7521 66.473 36.5484C67.2781 37.3446 68.2954 37.7427 69.5247 37.7427C70.7537 37.7427 71.7709 37.3446 72.5765 36.5484C73.3817 35.7521 73.7845 34.611 73.7845 33.1245V32.806C73.7845 31.3201 73.3872 30.1787 72.5925 29.3823C71.7976 28.5861 70.775 28.1881 69.5247 28.1881ZM108.774 28.1881C107.545 28.1881 106.527 28.5861 105.722 29.3823C104.916 30.1787 104.514 31.3201 104.514 32.806V33.1245C104.514 34.611 104.916 35.7521 105.722 36.5484C106.527 37.3446 107.545 37.7427 108.774 37.7427C110.003 37.7427 111.02 37.3446 111.826 36.5484C112.631 35.7521 113.034 34.611 113.034 33.1245V32.806C113.034 31.3201 112.636 30.1787 111.842 29.3823C111.047 28.5861 110.024 28.1881 108.774 28.1881ZM136.567 25.0592L136.913 26.5771H136.995L137.341 25.0592H138V26.8905H137.654V25.3726H137.572L137.226 26.8905H136.682L136.337 25.3726H136.254V26.8905H135.909V25.0592H136.567ZM135.661 25.0592V25.3726H135.052V26.8905H134.706V25.3726H134.097V25.0592H135.661Z" fill="#242424"/>
<path fill-rule="evenodd" clip-rule="evenodd" d="M37.6362 32.8461C37.6362 41.0319 30.9891 47.6914 22.8185 47.6914C14.6472 47.6914 8 41.0319 8 32.8461C8 24.6596 14.6472 18 22.8185 18C25.0768 18 27.2185 18.5083 29.1358 19.4175L26.6747 22.594C25.4746 22.1399 24.1755 21.8912 22.8185 21.8912C17.0568 21.8912 12.3223 26.378 11.9126 32.048C11.9045 32.1624 11.8983 32.2776 11.8935 32.3935C11.8872 32.5436 11.8839 32.6945 11.8839 32.8461C11.8839 38.8863 16.7889 43.8002 22.8185 43.8002C28.8473 43.8002 33.7522 38.8863 33.7522 32.8461C33.7522 32.0386 33.6643 31.2508 33.4986 30.4932L36.3544 26.8076C37.1781 28.6532 37.6362 30.6973 37.6362 32.8461Z" fill="#FFE01A"/>
<path fill-rule="evenodd" clip-rule="evenodd" d="M34.6154 23.8726L32.1193 27.0927L23.3575 38.4002L16.2094 31.998L18.7974 29.0971L22.8422 32.7198L29.4751 24.1609L31.8554 21.0883C32.893 21.8905 33.8219 22.8276 34.6154 23.8726Z" fill="#242424"/>
</g>
<defs>
<clipPath id="clip0_4_149">
<rect width="145" height="65" fill="white"/>
</clipPath>
</defs>
</svg>
