<svg width="145" height="65" viewBox="0 0 145 65" fill="none" xmlns="http://www.w3.org/2000/svg">
<path d="M98.3314 30.1372H95.2052L92.1497 33.3933V25.0524H89.7602V38.8914H92.1497V36.5782L93.1387 35.5462L95.4741 38.8914H98.4038L94.7914 33.8204L98.3314 30.1372Z" fill="#222E3A"/>
<path d="M88.8733 30.1126C88.6958 30.0948 88.5244 30.1126 88.3293 30.1126C87.5841 30.1126 86.3734 30.2903 85.8415 31.4454V30.1126H83.5541V38.8913H85.9124V34.8929C85.9124 33.0092 86.9045 32.3096 88.1099 32.3096C88.3232 32.3096 88.8733 32.3096 88.8733 32.3096V30.1126Z" fill="#222E3A"/>
<path d="M74.4676 36.3348C74.4676 37.6649 75.6089 38.8914 77.4814 38.8914C78.7828 38.8914 79.6209 38.5173 80.0667 37.8436L80.1474 38.8914H82.2245V33.335C82.2245 31.6249 81.1905 30.1047 78.4086 30.1047C76.055 30.1047 74.7885 31.5731 74.6459 32.9032L76.7499 33.335C76.8215 32.5922 77.3922 31.953 78.4262 31.953C79.4251 31.953 79.9067 32.4541 79.9067 33.0587C79.9067 33.3523 79.7459 33.3809 79.2468 33.45L77.0889 33.7609C75.6267 33.9682 74.4676 34.8147 74.4676 36.3348ZM77.9804 37.1812C77.2139 37.1812 76.839 36.6975 76.839 36.1966C76.839 35.5402 77.3206 35.2119 77.9271 35.1256L79.9067 34.832V35.4252C79.9067 36.9281 78.9794 37.1812 77.9804 37.1812Z" fill="#222E3A"/>
<path d="M67.9658 33.7492C68.0191 32.7884 68.6055 32.0411 69.6006 32.0411C70.7379 32.0411 71.2177 32.8061 71.2177 33.7847V38.8914H73.5811V33.3756C73.5811 31.4539 72.5505 30.1256 70.3292 30.1256C69.494 30.1256 68.5344 30.1906 67.9658 30.8667V25.0524H65.6024V38.8914H67.9658V33.7492Z" fill="#222E3A"/>
<path d="M57.6236 36.3647C57.7312 37.3121 58.6266 38.8914 61.2772 38.8914C63.5875 38.8914 64.7158 37.549 64.7158 36.1954C64.7158 34.9773 63.8383 33.9791 62.101 33.6407L60.8474 33.387C60.3639 33.3023 60.0415 33.0486 60.0415 32.6425C60.0415 32.1688 60.5429 31.8135 61.1698 31.8135C62.1727 31.8135 62.5488 32.4395 62.6205 32.9302L64.6084 32.5072C64.501 31.6105 63.6591 30.1047 61.1519 30.1047C59.2535 30.1047 57.8565 31.3398 57.8565 32.8287C57.8565 33.9961 58.6266 34.9604 60.328 35.3157L61.4922 35.5695C62.1727 35.7049 62.4413 36.0094 62.4413 36.3816C62.4413 36.8214 62.0652 37.2106 61.2772 37.2106C60.2384 37.2106 59.7191 36.6015 59.6654 35.9417L57.6236 36.3647Z" fill="#222E3A"/>
<path fill-rule="evenodd" clip-rule="evenodd" d="M55.2245 28.551C55.2242 28.5391 55.224 28.5271 55.224 28.515C55.224 27.7265 55.869 27.0872 56.6646 27.0872H57.1805V25.0524H56.0174C54.2183 25.0524 52.8631 26.3925 52.8631 28.3041V30.1134H51.4181V32.3103H52.8631V38.8914H55.2245V32.3103H57.1805V30.1134H55.2245V28.5593C55.2245 28.5566 55.2245 28.5538 55.2245 28.551Z" fill="#222E3A"/>
<path d="M50.5314 30.1126C50.3541 30.0948 50.1822 30.1126 49.9872 30.1126C49.2425 30.1126 48.0315 30.2903 47.4995 31.4454V30.1126H45.2123V38.8913H47.5705V34.8929C47.5705 33.0092 48.5626 32.3096 49.7683 32.3096C49.9811 32.3096 50.5314 32.3096 50.5314 32.3096V30.1126Z" fill="#222E3A"/>
<path d="M41.7239 38.8914H43.8825V30.1047H41.5293V35.2273C41.5293 36.2411 40.8934 36.7214 39.8495 36.7214C38.7525 36.7214 38.2571 35.9388 38.2571 34.9605V30.1047H35.9039V35.4408C35.9039 37.344 37.107 38.8914 39.2125 38.8914C40.1326 38.8914 41.1755 38.7669 41.6531 37.9487L41.7239 38.8914Z" fill="#222E3A"/>
<path d="M34.8279 28.4434C34.5247 26.969 33.274 25.0524 30.0147 25.0524C27.4754 25.0524 25.3341 26.8216 25.3341 29.1437C25.3341 31.1156 26.7174 32.461 28.8587 32.8849L30.7348 33.2535C31.777 33.4562 32.3645 34.2656 32.3645 35.0211C32.3645 35.9427 31.5875 36.6245 30.1852 36.6245C28.2902 36.6245 27.3617 35.4635 27.248 34.1734L24.8224 34.8001C25.0309 36.6614 26.6037 38.8914 30.1663 38.8914C33.293 38.8914 35.0174 36.8641 35.0174 34.8553C35.0174 33.0123 33.7098 31.2447 31.2653 30.7839L29.3893 30.4337C28.4039 30.2494 27.9302 29.6781 27.9302 28.9594C27.9302 28.0932 28.764 27.3007 30.0336 27.3007C31.7391 27.3007 32.3455 28.4249 32.4781 29.1437L34.8279 28.4434Z" fill="#222E3A"/>
<path fill-rule="evenodd" clip-rule="evenodd" d="M14.9014 20.0021C14.8735 20.0014 14.8455 20.0007 14.8175 20H9.22122C5.55782 20.1959 4.0179 22.3051 3.60475 23.4283C1.99937 28.1972 1.00042 34.3739 0.279303 38.8327C0.265237 38.9196 0.251278 39.006 0.237426 39.0916L0.0031396 41.2108C-0.0107584 41.5454 0.0207857 41.9077 0.111759 42.2595C0.561729 43.5524 1.91847 44.6415 4.90752 43.5564L4.90784 43.5582C7.73137 42.3379 11.0667 40.8215 14.5158 39.1203C16.4794 37.995 19.3559 35.408 19.5034 32.1402C19.4768 29.7164 19.3949 27.1754 19.2288 24.7025L19.2278 24.7043L19.2277 24.6872C19.2141 24.4841 19.1998 24.2491 19.1851 24.0044C19.1566 23.5345 19.1259 23.0291 19.093 22.6459C19.0443 22.3802 18.9818 22.14 18.9048 21.923C18.4257 20.8636 17.4871 20.3528 16.497 20.1085C16.0455 20.0309 15.4908 20.0169 14.9014 20.0021ZM14.6878 24.9343C14.6878 24.6602 14.4635 24.438 14.1869 24.438C11.006 24.438 8.42742 26.9934 8.42742 30.1457V32.0561C8.42742 33.7505 7.04138 35.1241 5.33163 35.1241C5.04667 35.1241 4.81566 35.3531 4.81566 35.6354V37.1971C4.81566 37.4712 5.03989 37.6934 5.31649 37.6934C8.49736 37.6934 11.076 35.138 11.076 31.9857V30.0753C11.076 28.3809 12.462 27.0073 14.1718 27.0073C14.4568 27.0073 14.6878 26.7784 14.6878 26.496V24.9343Z" fill="#178A9E"/>
<path d="M14.1869 24.438C14.4635 24.438 14.6878 24.6602 14.6878 24.9343V26.496C14.6878 26.7784 14.4568 27.0073 14.1718 27.0073C12.462 27.0073 11.076 28.3809 11.076 30.0753L11.076 32.1025C11.076 35.2548 8.49735 37.8102 5.31641 37.8102C5.03982 37.8102 4.81559 37.588 4.81559 37.3139V35.7522C4.81559 35.4698 5.04659 35.2409 5.33155 35.2409C7.0413 35.2409 8.42732 33.8673 8.42732 32.1729L8.42742 30.1457C8.42742 26.9934 11.006 24.438 14.1869 24.438Z" fill="white"/>
<path d="M140.124 27.472C140.124 28.7959 141.208 29.885 142.556 29.885C143.904 29.885 145 28.7959 145 27.472C145 26.1415 143.904 25.0524 142.556 25.0524C141.208 25.0524 140.124 26.1415 140.124 27.472ZM140.686 27.472C140.686 26.4024 141.505 25.5676 142.556 25.5676C143.606 25.5676 144.425 26.4024 144.425 27.472C144.425 28.535 143.606 29.3698 142.556 29.3698C141.505 29.3698 140.686 28.535 140.686 27.472ZM142.952 28.7567H143.645L143.117 27.7524C143.421 27.622 143.625 27.3415 143.625 26.9959C143.625 26.5263 143.229 26.148 142.721 26.148H141.676V28.7567H142.304V27.8502H142.496L142.952 28.7567ZM142.304 27.3415V26.6567H142.608C142.846 26.6567 142.991 26.7872 142.991 27.0024C142.991 27.2111 142.846 27.3415 142.608 27.3415H142.304Z" fill="#222E3A"/>
<path d="M138.81 30.1211V31.3942H133.317V30.1211H138.81ZM135.154 26.7856H136.684V36.1047C136.684 36.529 136.747 36.8473 136.872 37.0595C137.002 37.2674 137.166 37.4075 137.365 37.4796C137.568 37.5475 137.782 37.5814 138.006 37.5814C138.175 37.5814 138.313 37.573 138.421 37.556C138.529 37.5348 138.616 37.5178 138.68 37.5051L138.991 38.8545C138.888 38.8927 138.743 38.9309 138.557 38.9691C138.371 39.0116 138.136 39.0328 137.851 39.0328C137.419 39.0328 136.995 38.9415 136.58 38.7591C136.17 38.5766 135.828 38.2986 135.556 37.9252C135.288 37.5517 135.154 37.0807 135.154 36.512V26.7856Z" fill="#41889A"/>
<path d="M103.47 39.1081H101.617L107.144 24.6341H108.969L114.829 39.1081H112.976L108.113 26.9239H107.999L103.47 39.1081ZM104.322 33.4542H111.791V35.009H104.322V33.4542Z" fill="#41889A"/>
<path d="M117.555 24.6341V39.1081H115.873V24.6341H117.555Z" fill="#41889A"/>
<path d="M122.864 39.0328C122.017 39.0328 121.286 38.8494 120.672 38.4826C120.061 38.1121 119.59 37.5956 119.258 36.9332C118.93 36.2671 118.599 35.4924 118.599 34.6091C118.599 33.7259 118.93 32.9474 119.258 32.2738C119.59 31.5964 120.052 31.0687 120.643 30.6907C121.238 30.309 121.933 30.1181 122.726 30.1181C123.184 30.1181 123.636 30.193 124.082 30.3427C124.529 30.4924 124.935 30.7356 125.301 31.0725C125.668 31.4055 125.96 31.8471 126.177 32.3973C126.394 32.9474 126.503 33.6248 126.503 34.4295V34.9909H119.727V33.8456H125.13C125.13 33.3591 125.031 32.925 124.832 32.5433C124.638 32.1615 124.359 31.8602 123.997 31.6394C123.638 31.4186 123.215 31.3082 122.726 31.3082C122.188 31.3082 121.723 31.4392 121.33 31.7012C120.941 31.9594 120.641 32.2963 120.431 32.7117C120.221 33.1271 120.117 33.5724 120.117 34.0477V34.8112C120.117 35.4624 120.231 36.0144 120.46 36.4673C120.693 36.9164 121.015 37.2588 121.427 37.4946C121.839 37.7266 122.318 37.8426 122.864 37.8426C123.218 37.8426 123.539 37.794 123.825 37.6967C124.115 37.5956 124.365 37.4459 124.575 37.2476C124.784 37.0455 124.947 36.7947 125.061 36.4953L126.366 36.8546C126.229 37.2888 125.998 37.6705 125.673 37.9998C125.349 38.3254 124.949 38.5799 124.472 38.7633C123.995 38.9429 123.459 39.0328 122.864 39.0328Z" fill="#41889A"/>
<path d="M127.89 38.8531V30.2304H129.195V31.5328H129.286C129.447 31.1061 129.737 30.76 130.156 30.4942C130.576 30.2285 131.049 30.0957 131.576 30.0957C131.675 30.0957 131.799 30.0975 131.948 30.1013C132.096 30.105 132.209 30.1106 132.285 30.1181V31.4654C132.239 31.4542 132.135 31.4373 131.97 31.4149C131.81 31.3887 131.64 31.3756 131.461 31.3756C131.034 31.3756 130.652 31.4635 130.317 31.6394C129.985 31.8116 129.721 32.0511 129.527 32.358C129.336 32.6611 129.241 33.0073 129.241 33.3965V38.8531H127.89Z" fill="#41889A"/>
</svg>
