<svg width="145" height="65" viewBox="0 0 145 65" fill="none" xmlns="http://www.w3.org/2000/svg">
<g clip-path="url(#clip0_2_41)">
<rect width="145" height="65" fill="white"/>
<rect x="-16" y="-11" width="191" height="93" fill="#1D2023"/>
<path fill-rule="evenodd" clip-rule="evenodd" d="M25.9178 21L26.4153 24.5025L25.9178 27.154C24.2617 27.154 22.9198 28.4878 22.9198 30.1321C22.9198 31.1612 23.4447 32.068 24.244 32.6034V35.517H25.9178L26.4153 38.9596L25.9178 43.3102C15.3252 39.3396 15 25.6898 15 25.6898L25.9178 21Z" fill="#E63748"/>
<path fill-rule="evenodd" clip-rule="evenodd" d="M25.9178 21V27.154C27.5738 27.154 28.9158 28.4878 28.9158 30.1321C28.9158 31.1612 28.3908 32.068 27.5915 32.6034V35.517H25.9178V43.3102C36.5104 39.3396 36.8355 25.6898 36.8355 25.6898L25.9178 21Z" fill="#C42B34"/>
<path fill-rule="evenodd" clip-rule="evenodd" d="M60.4183 25.3623C64.3802 25.3623 67.0641 27.9871 67.0641 32.6096C67.0641 37.2541 64.3802 39.9874 60.4183 39.9874C56.4573 39.9874 53.7725 37.2541 53.7725 32.6096C53.7725 27.966 56.4573 25.3623 60.4183 25.3623ZM120.513 25.3209L122.852 33.0952C123.385 34.8077 123.719 36.1697 124.277 37.8601H124.365C124.901 36.1697 125.257 34.8077 125.769 33.0952L128.107 25.3209H130L125.368 39.7271H123.208L118.531 25.3209H120.513ZM112.941 25.3209L117.884 39.7271H115.903L114.522 35.3356H109.2L107.796 39.7271H105.904L110.847 25.3209H112.941ZM97.3424 25.6217V36.6029H102.756V39.7271H93.558V25.6217H97.3424ZM87.8369 25.6217L92.1945 39.7271H88.1893L87.4855 36.7326H83.4803L82.7755 39.7271H78.9019L83.2595 25.6217H87.8369ZM79.4761 25.6217V28.7468H75.6899V39.7271H71.9056V28.7468H68.1194V25.6217H79.4761ZM52.937 25.6217V28.7468H49.1518V39.7271H45.3675V28.7468H41.5822V25.6217H52.937ZM60.4183 28.573C58.7023 28.573 57.646 30.0491 57.646 32.6096C57.646 35.17 58.7023 36.7758 60.4183 36.7758C62.1352 36.7758 63.1914 35.17 63.1914 32.6096C63.1914 30.0491 62.1352 28.573 60.4183 28.573ZM111.894 26.8145H111.805C111.434 28.2048 111.047 29.535 110.62 30.8675L110.358 31.6678L109.667 33.864H114.055L113.365 31.6678C112.83 30.0647 112.362 28.4829 111.894 26.8145ZM85.5045 28.4001H85.4171C85.1431 29.6721 84.8342 31.1513 84.5215 32.4093L84.4041 32.8698L84.1621 33.8466H86.8027L86.5608 32.8698C86.2093 31.5243 85.8569 29.8109 85.5045 28.4001Z" fill="white"/>
</g>
<defs>
<clipPath id="clip0_2_41">
<rect width="145" height="65" fill="white"/>
</clipPath>
</defs>
</svg>
