<svg width="145" height="65" viewBox="0 0 145 65" fill="none" xmlns="http://www.w3.org/2000/svg">
<g clip-path="url(#clip0_1_30)">
<mask id="mask0_1_30" style="mask-type:luminance" maskUnits="userSpaceOnUse" x="0" y="0" width="145" height="65">
<path d="M145 0H0V65H145V0Z" fill="white"/>
</mask>
<g mask="url(#mask0_1_30)">
<mask id="mask1_1_30" style="mask-type:luminance" maskUnits="userSpaceOnUse" x="0" y="17" width="145" height="31">
<path d="M145 17H0V47.603H145V17Z" fill="white"/>
</mask>
<g mask="url(#mask1_1_30)">
<mask id="mask2_1_30" style="mask-type:luminance" maskUnits="userSpaceOnUse" x="0" y="17" width="145" height="31">
<path d="M145 17H0V47.603H145V17Z" fill="white"/>
</mask>
<g mask="url(#mask2_1_30)">
<path d="M30.5624 32.3025C30.5624 35.3284 29.6663 38.2864 27.9874 40.8024C26.3086 43.3183 23.9224 45.2793 21.1305 46.4373C18.3387 47.5953 15.2666 47.8984 12.3027 47.3081C9.33893 46.7179 6.61643 45.2608 4.47956 43.1213C2.34269 40.9817 0.887406 38.2557 0.297742 35.2879C-0.291921 32.3202 0.0105146 29.244 1.16681 26.4484C2.3231 23.6527 4.28132 21.2632 6.79383 19.5819C9.30635 17.9007 12.2603 17.0032 15.2822 17.003C17.2888 17.0029 19.2757 17.3985 21.1296 18.1673C22.9835 18.9362 24.668 20.0631 26.0869 21.4838C27.5058 22.9045 28.6313 24.5911 29.3992 26.4474C30.1671 28.3037 30.5624 30.2933 30.5624 32.3025Z" fill="white"/>
<path d="M2.5572 40.7801C0.4248 37.575 -0.422099 33.6825 0.185546 29.8797C0.793191 26.0768 2.81068 22.6433 5.83533 20.2644C8.85998 17.8855 12.6693 16.7363 16.5029 17.0461C20.3366 17.3559 23.9126 19.1019 26.5171 21.9356C23.5651 19.9148 17.9366 20.8811 12.5686 24.3247C17.4356 21.3487 22.6061 20.8781 24.6804 23.536C27.0652 26.5893 24.5581 32.5413 19.0769 36.8308C13.5957 41.1202 8.03739 41.9269 7.00729 39.0342C6.62851 37.9546 6.33091 36.5769 8.54543 32.2283L11.1427 32.2413L11.6438 31.1898H8.99936L10.6137 27.7101C10.6137 27.7101 9.32302 27.7101 9.31099 27.7191C7.49611 29.4286 5.28553 30.6598 2.87786 31.3022L2.458 32.2905H4.24565C2.24657 35.4351 1.63232 38.5345 2.5572 40.7801Z" fill="#D71920"/>
<path d="M30.5624 32.3025C30.5621 35.3591 29.6476 38.3455 27.9367 40.8768C26.2259 43.4081 23.7971 45.3683 20.9634 46.5047C18.1298 47.6412 15.0212 47.9017 12.0383 47.2528C9.05543 46.604 6.33499 45.0754 4.22766 42.8641C7.58051 45.1719 14.4084 43.6016 20.4377 38.8857C26.4069 34.217 29.5814 28.0412 28.2537 24.2103C29.7656 26.6375 30.5643 29.4419 30.5584 32.3025" fill="#D71920"/>
<path d="M136.213 39.6794L135.329 39.5851V39.6232L136.041 39.8961L137.701 40.8473V41.1262L136.037 42.1236L135.328 42.4055V42.4366L136.209 42.3112H138.522V43.136H134.079V42.3393L136.113 41.1503L136.621 40.9396V40.9145L136.098 40.7229L134.08 39.5961V38.8074H138.527V39.6794H136.213Z" fill="black"/>
<path d="M138.523 36.5458H134.076V37.4177H138.523V36.5458Z" fill="black"/>
<path d="M138.344 32.3968C138.449 32.5531 138.519 32.7295 138.551 32.9146C138.592 33.1274 138.613 33.3438 138.613 33.5607C138.614 33.8189 138.573 34.0756 138.491 34.3203C138.407 34.5593 138.27 34.7761 138.09 34.9544C137.885 35.1498 137.64 35.2987 137.372 35.3909C137.027 35.5068 136.665 35.5621 136.301 35.5544C135.928 35.5636 135.556 35.503 135.204 35.3758C134.937 35.2701 134.695 35.1098 134.493 34.9053C134.317 34.7209 134.185 34.5003 134.104 34.2591C134.026 34.0295 133.986 33.789 133.985 33.5467C133.982 33.3301 134 33.1138 134.038 32.9005C134.064 32.7514 134.105 32.6052 134.16 32.464L134.896 32.6366C134.846 32.7473 134.813 32.8645 134.796 32.9848C134.773 33.1459 134.763 33.3087 134.765 33.4714C134.759 33.6319 134.79 33.7917 134.855 33.9385C134.92 34.0853 135.018 34.2152 135.141 34.3183C135.48 34.5611 135.894 34.6756 136.309 34.6414C136.52 34.6436 136.731 34.6183 136.936 34.5661C137.111 34.5232 137.275 34.4443 137.419 34.3343C137.553 34.2308 137.661 34.0976 137.735 33.945C137.812 33.7758 137.85 33.5911 137.844 33.4052C137.848 33.2422 137.829 33.0794 137.788 32.9216C137.756 32.8006 137.707 32.6845 137.644 32.5764L138.352 32.4008L138.344 32.3968Z" fill="black"/>
<path d="M134.116 31.3713C134.097 31.271 134.082 31.1706 134.069 31.0542C134.056 30.9378 134.044 30.8315 134.035 30.7181C134.026 30.6047 134.019 30.4953 134.013 30.389C134.007 30.2826 134.007 30.1883 134.007 30.097C134.006 29.8905 134.026 29.6845 134.066 29.4819C134.099 29.2922 134.165 29.1097 134.26 28.9421C134.354 28.7833 134.487 28.6513 134.646 28.5588C134.834 28.4568 135.046 28.4069 135.26 28.4143C135.576 28.4002 135.889 28.4893 136.15 28.6682C136.378 28.8375 136.545 29.0767 136.626 29.3495L136.826 29.0384L138.522 28.019V29.0224L136.772 30.0378L136.691 30.4963H138.515V31.3683H134.112L134.116 31.3713ZM134.786 30.0348C134.786 30.1231 134.786 30.2104 134.792 30.2987C134.793 30.3662 134.8 30.4334 134.814 30.4994H136.105V30.1291C136.114 29.9242 136.057 29.7217 135.942 29.5522C135.874 29.4752 135.789 29.4155 135.693 29.3778C135.598 29.3402 135.495 29.3256 135.393 29.3354C135.311 29.3307 135.228 29.3443 135.151 29.3752C135.074 29.406 135.005 29.4534 134.948 29.514C134.833 29.6618 134.776 29.8474 134.789 30.0348H134.786Z" fill="black"/>
<path d="M136.298 27.4672C135.689 27.5067 135.084 27.3337 134.588 26.9775C134.386 26.8068 134.227 26.5915 134.122 26.3486C134.018 26.1057 133.972 25.8418 133.987 25.5778C133.98 25.2906 134.036 25.0055 134.153 24.743C134.259 24.5097 134.421 24.3068 134.626 24.153C134.843 23.9867 135.091 23.8672 135.356 23.8018C135.665 23.7233 135.983 23.6852 136.302 23.6884C136.914 23.6481 137.52 23.8223 138.017 24.1811C138.219 24.351 138.378 24.5657 138.482 24.8082C138.587 25.0507 138.633 25.3142 138.618 25.5778C138.625 25.8666 138.569 26.1535 138.455 26.4186C138.349 26.6509 138.187 26.8536 137.985 27.0086C137.766 27.1709 137.518 27.2891 137.254 27.3568C136.944 27.4368 136.625 27.4759 136.304 27.4732L136.298 27.4672ZM136.298 26.5511C136.506 26.5528 136.714 26.534 136.919 26.4949C137.089 26.4634 137.253 26.4041 137.404 26.3193C137.533 26.2459 137.643 26.1427 137.724 26.0183C137.829 25.8278 137.862 25.6058 137.816 25.393C137.771 25.1803 137.65 24.9912 137.477 24.8604C137.117 24.6625 136.707 24.5743 136.298 24.6065C136.097 24.6059 135.895 24.6237 135.697 24.6597C135.526 24.6923 135.36 24.7494 135.205 24.8293C135.072 24.901 134.959 25.0044 134.876 25.1303C134.796 25.267 134.756 25.4234 134.76 25.5818C134.755 25.724 134.787 25.865 134.852 25.9914C134.917 26.1177 135.014 26.2251 135.133 26.3032C135.488 26.4984 135.891 26.5866 136.295 26.5571L136.298 26.5511Z" fill="black"/>
<path d="M142.44 23.9433H141.728V25.8296H141.45V23.9433H140.748V23.6924H142.444L142.44 23.9433Z" fill="black"/>
<path d="M145 25.8296H144.73V24.0406L144.11 25.8296H143.857L143.248 24.0095L143.242 25.8296H142.967V23.6924H143.39L143.898 25.2045C143.898 25.2045 143.92 25.2677 143.954 25.3831C143.973 25.4286 143.987 25.476 143.995 25.5246L144.114 25.1794L144.625 23.6924H145.001L145 25.8296Z" fill="black"/>
<path d="M74.1574 23.6895H88.0858V26.9214H78.3249V31.4958H87.3062V34.7247H78.3249V39.9051H88.3804V43.135H74.1574V23.6895Z" fill="black"/>
<path d="M103.633 43.135L96.504 30.2044L96.4509 30.2606V43.135H92.5529V23.6895H97.7125L104.801 36.3943L104.857 36.3411V23.6895H108.752V43.135H103.633Z" fill="black"/>
<path d="M119.809 23.6895H113.195V43.137H119.809C125.866 43.1902 129.629 40.172 129.629 33.4132C129.629 26.6545 125.865 23.6323 119.809 23.6925M119.52 39.9051H117.369V27.0719H119.525C124.47 27.0157 125.2 30.3128 125.2 33.4102C125.2 36.5077 124.469 39.9623 119.525 39.9021" fill="black"/>
<path d="M35.0055 23.6895H50.7376V26.9214H44.9558V43.135H40.7873V26.9214H35.0055V23.6895Z" fill="black"/>
<path d="M66.7342 34.9043C67.8255 34.4989 68.7662 33.768 69.4292 32.8101C70.0923 31.8523 70.4457 30.7137 70.4418 29.5482C70.4415 29.2605 70.4204 28.9731 70.3787 28.6883C70.2605 27.8254 69.9411 27.0024 69.4461 26.2861C68.9512 25.5699 68.2947 24.9804 67.5299 24.5655C67.3415 24.4461 66.12 23.6895 62.5096 23.6895C62.4375 23.6895 62.3683 23.6895 62.2992 23.6895H54.0583V43.138H58.2229V35.412H62.6319C63.8037 37.9238 64.8301 40.501 65.7061 43.131H70.8296L66.7433 34.9033L66.7342 34.9043ZM58.2168 26.9876H63.1369C64.7883 27.0127 65.8224 27.6087 66.0077 28.9944V29.0195C66.0138 29.0666 66.0168 29.1198 66.0208 29.1639C66.0248 29.2081 66.0268 29.2643 66.0298 29.3084V29.492C66.0138 31.1797 64.9426 32.0778 63.1339 32.1008H58.2138V26.9906L58.2168 26.9876Z" fill="black"/>
</g>
</g>
</g>
</g>
<defs>
<clipPath id="clip0_1_30">
<rect width="145" height="65" fill="white"/>
</clipPath>
</defs>
</svg>
