<svg width="51" height="43" viewBox="0 0 51 43" fill="none" xmlns="http://www.w3.org/2000/svg">
<path d="M38.1133 35.5524C38.1133 34.1896 40.1333 34.1896 40.1333 35.5524C40.1333 36.2908 40.7123 36.8836 41.4309 36.8836C42.1532 36.8836 42.7292 36.2934 42.7292 35.5524C42.7292 34.8115 42.1532 34.22 41.4309 34.22C39.6011 34.22 38.1133 32.6919 38.1133 30.8167C38.1133 29.3342 39.0578 28.0201 40.4209 27.5737V27.2805C40.4209 25.9176 42.4409 25.9176 42.4409 27.2805V27.5749C43.8065 28.0258 44.7492 29.3291 44.7492 30.8167C44.7492 32.1796 42.7292 32.1796 42.7292 30.8167C42.7292 30.0777 42.1508 29.4849 41.4309 29.4849C40.7105 29.4849 40.1333 30.0783 40.1333 30.8167C40.1333 31.5551 40.7111 32.1479 41.4309 32.1479C43.2583 32.1479 44.7492 33.6779 44.7492 35.5524C44.7492 37.0356 43.8034 38.3446 42.4409 38.7936V39.0887C42.4409 40.4515 40.4209 40.4515 40.4209 39.0887V38.7942C39.056 38.3446 38.1133 37.0387 38.1133 35.5524ZM41.4309 43.0005C38.6411 43.0005 36.121 41.7611 34.3684 39.7916H4.28138C1.92492 39.7916 0 37.8164 0 35.4004V3.93762C0 1.77558 1.73046 0.000488281 3.83812 0.000488281H44.7925C46.8995 0.000488281 48.6306 1.77558 48.6306 3.93762V26.7352C50.1042 28.4628 51 30.7211 51 33.1846C51 38.5852 46.6958 43.0005 41.4309 43.0005ZM32.9509 37.7195C32.2558 36.3611 31.8619 34.8185 31.8619 33.1846C31.8619 32.2258 31.9977 31.2987 32.2502 30.4209C32.458 29.6985 32.5931 29.2776 33.1108 28.3488C33.246 28.1063 33.3911 27.8694 33.5454 27.6402C33.9582 27.027 34.8029 26.0755 35.4111 25.5681C37.0576 24.1945 39.1547 23.3687 41.4309 23.3687C43.3361 23.3687 45.1153 23.9469 46.6106 24.9411V10.6606H2.01938V35.4004C2.01938 36.6771 3.0374 37.7195 4.28138 37.7195H32.9509ZM41.4309 40.929C45.5808 40.929 48.9806 37.4415 48.9806 33.1846C48.9806 28.9422 45.5734 25.4401 41.4309 25.4401C39.5733 25.4401 37.8663 26.1393 36.547 27.2931C36.4871 27.3679 36.4161 27.4331 36.3334 27.4869C34.8289 28.9048 33.8813 30.9377 33.8813 33.1846C33.8813 37.4073 37.2854 40.929 41.4309 40.929ZM9.14617 22.8667C7.81638 22.8667 7.81638 20.7946 9.14617 20.7946H19.808C21.1377 20.7946 21.1377 22.8667 19.808 22.8667H9.14617ZM9.14617 18.086C7.81638 18.086 7.81638 16.0139 9.14617 16.0139H23.5621C24.8919 16.0139 24.8919 18.086 23.5621 18.086H9.14617ZM27.37 6.36563C26.0402 6.36563 26.0402 4.29352 27.37 4.29352H42.5298C43.859 4.29352 43.859 6.36563 42.5298 6.36563H27.37ZM14.9253 3.82173C15.7371 3.82173 16.3958 4.49681 16.3958 5.32957C16.3958 6.16361 15.7371 6.83869 14.9253 6.83869C14.1128 6.83869 13.4541 6.16361 13.4541 5.32957C13.4541 4.49681 14.1128 3.82173 14.9253 3.82173ZM10.6822 3.82173C11.494 3.82173 12.1533 4.49681 12.1533 5.32957C12.1533 6.16361 11.494 6.83869 10.6822 6.83869C9.87033 6.83869 9.21161 6.16361 9.21161 5.32957C9.21161 4.49681 9.87033 3.82173 10.6822 3.82173ZM6.43967 3.82173C7.25211 3.82173 7.91022 4.49681 7.91022 5.32957C7.91022 6.16361 7.25211 6.83869 6.43967 6.83869C5.62784 6.83869 4.96974 6.16361 4.96974 5.32957C4.96974 4.49681 5.62784 3.82173 6.43967 3.82173ZM44.7925 2.07196H3.83812C2.83429 2.07196 2.01938 2.9079 2.01938 3.93762V8.58782H46.6106V3.93762C46.6106 2.9079 45.7963 2.07196 44.7925 2.07196Z" fill="#37B0FF"/>
</svg>
