<svg width="46" height="48" viewBox="0 0 46 48" fill="none" xmlns="http://www.w3.org/2000/svg">
<path d="M45.754 21.599C45.754 18.9044 44.3494 16.4699 42.0681 15.0817V4.42181C42.0681 2.23396 40.2761 0.453613 38.0738 0.453613C35.886 0.453613 34.1056 2.23396 34.1056 4.42181V4.9141L19.1018 11.8149H11.3918C8.54116 11.8149 6.20976 14.0432 6.04791 16.8389H5.38414C2.75987 16.8389 0.625 18.9748 0.625 21.599C0.625 24.2387 2.75987 26.3861 5.38414 26.3861H6.04888C6.22421 29.1848 8.5508 31.4102 11.3918 31.4102H12.5315V43.0363C12.5315 45.7656 14.7521 47.9872 17.4824 47.9872C20.1962 47.9872 22.4053 45.7656 22.4053 43.0363V32.9294L34.1056 38.3119V38.8032C34.1056 40.9911 35.886 42.7714 38.0738 42.7714C40.2761 42.7714 42.0681 40.9911 42.0681 38.8032V28.1404C44.3484 26.7522 45.754 24.3071 45.754 21.599ZM2.55178 21.599C2.55178 20.0624 3.84946 18.7657 5.38414 18.7657H6.03154V24.4593H5.38414C3.82249 24.4593 2.55178 23.1761 2.55178 21.599ZM7.95831 26.0489V17.1472C7.95831 15.2696 9.49877 13.7416 11.3918 13.7416H18.3475V29.4834H11.3918C9.49877 29.4834 7.95831 27.9429 7.95831 26.0489ZM20.4785 43.0363C20.4785 44.703 19.1346 46.0604 17.4824 46.0604C15.8437 46.0604 14.4583 44.6751 14.4583 43.0363V31.4102H19.1009L20.4776 32.0431L20.4785 43.0363ZM20.2752 29.8293V13.3958L34.1047 7.03452V36.1915L20.2752 29.8293ZM40.1413 38.8032C40.1413 39.9092 39.1943 40.8446 38.0738 40.8446C36.9679 40.8446 36.0324 39.9092 36.0324 38.8032V4.42181C36.0324 3.29561 36.9476 2.38039 38.0738 2.38039C39.2145 2.38039 40.1413 3.29561 40.1413 4.42181V38.8032ZM42.0681 17.4834C43.1759 18.5451 43.8272 20.0133 43.8272 21.599C43.8272 23.1954 43.1759 24.6713 42.0681 25.7377V17.4834Z" fill="#37B0FF"/>
</svg>
