<svg width="50" height="44" viewBox="0 0 50 44" fill="none" xmlns="http://www.w3.org/2000/svg">
<path d="M22.3525 25.9968L22.1184 26.1735L22.3987 26.2599C27.2478 27.7541 31.2466 31.225 33.2303 35.9316C33.913 37.5546 33.7484 39.3298 32.7759 40.8067C31.757 42.353 30.0162 43.2784 28.1149 43.2784H5.8874C3.98608 43.2784 2.24457 42.353 1.22635 40.8067L1.22634 40.8067C0.253866 39.3304 0.0886474 37.5546 0.772041 35.9316C2.75374 31.225 6.75189 27.7541 11.6016 26.2599L11.882 26.1735L11.6478 25.9968C9.46854 24.3525 8.05106 21.7426 8.05106 18.7986C8.05106 13.8329 12.0669 9.79404 17.0005 9.79404C21.9334 9.79404 25.9492 13.8329 25.9492 18.7986C25.9492 21.7419 24.5311 24.3525 22.3525 25.9968ZM31.074 36.8504L31.074 36.8503C28.7583 31.3506 23.2302 27.8019 16.9998 27.8019C10.7681 27.8019 5.24132 31.3506 2.92567 36.851C2.55428 37.7322 2.64607 38.7013 3.1756 39.505C3.76136 40.3948 4.77672 40.9224 5.88608 40.9224H28.1136C29.2229 40.9224 30.2383 40.3948 30.824 39.505C31.3536 38.7012 31.4446 37.7322 31.074 36.8504ZM16.9998 12.15C13.3541 12.15 10.3904 15.1337 10.3904 18.7986C10.3904 22.4636 13.3548 25.4465 16.9998 25.4465C20.6449 25.4465 23.6086 22.4635 23.6086 18.7986C23.6086 15.133 20.6456 12.15 16.9998 12.15Z" fill="#37B0FF" stroke="white" stroke-width="0.3"/>
<path d="M35.1339 15.1065V14.9565H34.9839H33.0448C30.7861 14.9565 28.9464 13.1075 28.9464 10.833V4.27399C28.9464 1.99947 30.7861 0.150488 33.0448 0.150488H45.7505C48.0091 0.150488 49.8489 1.99947 49.8489 4.27399V10.833C49.8489 13.1075 48.0091 14.9565 45.7505 14.9565H43.0379H42.9755L42.9315 15.0007L37.1307 20.8366C36.9066 21.0622 36.6084 21.1815 36.3039 21.1815C36.1528 21.1815 36.0009 21.1526 35.8562 21.0922L35.8561 21.0921C35.4193 20.9098 35.1339 20.4805 35.1339 20.0035V15.1065ZM41.6645 12.9453L41.6645 12.9453C41.884 12.7245 42.1817 12.6005 42.4914 12.6005H45.7505C46.7212 12.6005 47.5089 11.8068 47.5089 10.833L47.5095 4.27401C47.5095 3.30021 46.7218 2.50649 45.7511 2.50649H33.0448C32.0741 2.50649 31.2864 3.30021 31.2864 4.27399V10.833C31.2864 11.8068 32.0741 12.6005 33.0448 12.6005H36.3039C36.9488 12.6005 37.4739 13.1274 37.4739 13.7785V16.797V17.1607L37.7303 16.9028L41.6645 12.9453Z" fill="#37B0FF" stroke="white" stroke-width="0.3"/>
</svg>
