<svg width="44" height="44" viewBox="0 0 44 44" fill="none" xmlns="http://www.w3.org/2000/svg">
<mask id="path-1-outside-1_1049_8445" maskUnits="userSpaceOnUse" x="0.92627" y="-0.181152" width="43" height="44" fill="black">
<rect fill="white" x="0.92627" y="-0.181152" width="43" height="44"/>
<path d="M22.6291 13.0731C20.9033 13.0731 19.2163 13.5966 17.7813 14.5776C16.3464 15.5585 15.228 16.9527 14.5676 18.5839C13.9071 20.2151 13.7343 22.0101 14.071 23.7417C14.4077 25.4734 15.2388 27.0641 16.4591 28.3125C17.6794 29.561 19.2342 30.4112 20.9268 30.7557C22.6194 31.1001 24.3739 30.9234 25.9683 30.2477C27.5627 29.572 28.9255 28.4278 29.8843 26.9598C30.8431 25.4917 31.3548 23.7658 31.3548 22.0002C31.3522 19.6334 30.432 17.3643 28.7962 15.6908C27.1604 14.0172 24.9425 13.0758 22.6291 13.0731ZM22.6291 29.2282C21.2308 29.2282 19.864 28.8039 18.7015 28.0091C17.5389 27.2143 16.6329 26.0846 16.098 24.7629C15.563 23.4412 15.4233 21.9868 15.6963 20.5839C15.9694 19.1809 16.643 17.8923 17.632 16.881C18.621 15.8698 19.8809 15.1813 21.2524 14.9027C22.6239 14.6241 24.0453 14.7679 25.3369 15.3159C26.6285 15.8639 27.7322 16.7914 28.5085 17.9812C29.2848 19.171 29.6987 20.5696 29.698 22.0002C29.6957 23.9174 28.9502 25.7555 27.625 27.1111C26.2998 28.4667 24.5031 29.2292 22.6291 29.2313V29.2282ZM42.6163 25.637C42.8146 25.6092 42.9963 25.5089 43.1279 25.3546C43.2594 25.2003 43.3319 25.0025 43.3319 24.7977V19.1994C43.3319 18.9946 43.2595 18.7967 43.128 18.6422C42.9964 18.4878 42.8147 18.3873 42.6163 18.3593L38.2758 17.7447C37.9079 16.3223 37.3548 14.957 36.6313 13.6854L39.2787 10.1116C39.3992 9.94806 39.4577 9.74548 39.4436 9.54124C39.4294 9.33701 39.3435 9.14491 39.2017 9.00042L35.3303 5.03966C35.1891 4.89444 35.0013 4.80644 34.8017 4.79195C34.602 4.77746 34.4039 4.83747 34.2442 4.96086L30.7509 7.6694C29.5092 6.93192 28.1766 6.36767 26.7886 5.99163L26.1901 1.55095C26.1629 1.3481 26.0649 1.16219 25.9141 1.0276C25.7632 0.893014 25.5699 0.818855 25.3698 0.818848H19.8915C19.6914 0.818855 19.4981 0.893014 19.3472 1.0276C19.1964 1.16219 19.0984 1.3481 19.0712 1.55095L18.4696 5.99242C17.0796 6.36897 15.7453 6.93486 14.5026 7.67492L11.0087 4.96637C10.8489 4.84298 10.6508 4.78298 10.4512 4.79747C10.2515 4.81195 10.0637 4.89995 9.92256 5.04518L6.05112 9.00515C5.90926 9.14976 5.82332 9.342 5.80916 9.54637C5.795 9.75074 5.85359 9.95345 5.9741 10.1171L8.62155 13.6909C7.90063 14.9612 7.34934 16.3246 6.98239 17.7447L2.64186 18.3562C2.44352 18.3842 2.26179 18.4847 2.13025 18.6391C1.99871 18.7935 1.92625 18.9914 1.92627 19.1963V24.7977C1.92625 25.0024 1.99863 25.2001 2.13002 25.3544C2.26142 25.5086 2.44296 25.609 2.64109 25.637L6.98239 26.2485C7.3503 27.6712 7.90344 29.0367 8.62694 30.3086L5.97949 33.8824C5.85903 34.0459 5.80048 34.2485 5.81464 34.4528C5.8288 34.657 5.91471 34.8491 6.05651 34.9936L9.92795 38.9543C10.0692 39.0994 10.2569 39.1873 10.4566 39.2018C10.6562 39.2163 10.8542 39.1564 11.014 39.0331L14.5073 36.3238C15.7484 37.0641 17.0811 37.6306 18.4696 38.0079L19.0681 42.4486C19.0953 42.6514 19.1933 42.8373 19.3442 42.9719C19.495 43.1065 19.6883 43.1807 19.8884 43.1807H25.3636C25.5637 43.1807 25.7571 43.1065 25.9079 42.9719C26.0587 42.8373 26.1568 42.6514 26.1839 42.4486L26.7825 38.0079C28.1725 37.6311 29.5067 37.0649 30.7494 36.3246L34.2434 39.0331C34.4032 39.1565 34.6012 39.2165 34.8009 39.2021C35.0006 39.1876 35.1883 39.0996 35.3295 38.9543L39.2009 34.9936C39.3427 34.8491 39.4286 34.657 39.4428 34.4528C39.457 34.2485 39.3984 34.0459 39.2779 33.8824L36.6297 30.3078C37.3535 29.0387 37.9071 27.6757 38.2758 26.2556L42.6163 25.637ZM36.7976 25.2997C36.4356 26.9336 35.8039 28.4924 34.9297 29.9091C34.8398 30.055 34.7955 30.2255 34.8028 30.3979C34.8101 30.5702 34.8686 30.7362 34.9705 30.8736L37.5217 34.3174L34.6717 37.2332L31.3055 34.6232C31.1712 34.5192 31.0091 34.4596 30.8408 34.4523C30.6725 34.445 30.506 34.4903 30.3635 34.5822C28.9785 35.4765 27.4546 36.1228 25.8574 36.4932C25.6933 36.5313 25.5445 36.6195 25.4307 36.7462C25.3169 36.8729 25.2435 37.0321 25.2203 37.2025L24.6442 41.4816H20.614L20.0379 37.2025C20.0146 37.0321 19.9411 36.873 19.8274 36.7463C19.7136 36.6197 19.5648 36.5314 19.4009 36.4932C17.8036 36.1228 16.2797 35.4765 14.8947 34.5822C14.7522 34.4902 14.5857 34.4449 14.4173 34.4523C14.249 34.4598 14.0868 34.5197 13.9527 34.624L10.5865 37.234L7.7365 34.3182L10.2877 30.8744C10.3896 30.7372 10.4481 30.5713 10.4554 30.3991C10.4627 30.2268 10.4184 30.0564 10.3285 29.9106C9.45437 28.4937 8.82268 26.9346 8.46056 25.3005C8.42337 25.1327 8.33712 24.9805 8.21328 24.8641C8.08944 24.7476 7.93388 24.6726 7.76731 24.6488L3.58468 24.0593V19.9386L7.76731 19.3491C7.93398 19.3253 8.08961 19.2501 8.21346 19.1336C8.33732 19.017 8.42351 18.8646 8.46056 18.6966C8.82282 17.0628 9.4545 15.5041 10.3285 14.0873C10.4184 13.9415 10.4627 13.7711 10.4554 13.5989C10.4481 13.4266 10.3896 13.2608 10.2877 13.1235L7.7365 9.67972L10.5865 6.76392L13.9527 9.37396C14.087 9.47783 14.2491 9.53746 14.4173 9.54492C14.5856 9.55238 14.7521 9.50732 14.8947 9.41572C16.2797 8.52184 17.8032 7.87561 19.4001 7.5047C19.5642 7.46669 19.7131 7.37847 19.827 7.25178C19.941 7.12509 20.0145 6.96593 20.0379 6.79545L20.614 2.51631H24.6442L25.2203 6.79466C25.2435 6.96508 25.3169 7.12422 25.4307 7.25092C25.5445 7.37762 25.6933 7.46586 25.8574 7.50391C27.4548 7.8743 28.9787 8.52085 30.3635 9.41572C30.5061 9.50753 30.6726 9.55272 30.8409 9.54526C31.0092 9.5378 31.1713 9.47804 31.3055 9.37396L34.6717 6.76392L37.5217 9.67972L34.9705 13.1227C34.8686 13.2602 34.8101 13.4261 34.8028 13.5985C34.7955 13.7708 34.8398 13.9414 34.9297 14.0873C35.8037 15.5041 36.4354 17.0628 36.7976 18.6966C36.8347 18.8646 36.9209 19.017 37.0447 19.1336C37.1686 19.2501 37.3242 19.3253 37.4909 19.3491L41.6735 19.9386V24.0617L37.4909 24.6512C37.3243 24.6749 37.1688 24.75 37.0449 24.8664C36.9211 24.9828 36.8348 25.1351 36.7976 25.3029V25.2997ZM27.0135 19.2341C27.1688 19.3931 27.256 19.6086 27.256 19.8334C27.256 20.0582 27.1688 20.2737 27.0135 20.4327L21.9574 25.6063C21.802 25.7651 21.5913 25.8544 21.3716 25.8544C21.1519 25.8544 20.9412 25.7651 20.7858 25.6063L18.0652 22.8229C17.9097 22.6635 17.8225 22.4475 17.8227 22.2223C17.8229 21.9972 17.9106 21.7813 18.0663 21.6223C18.2221 21.4632 18.4333 21.374 18.6533 21.3742C18.8734 21.3744 19.0844 21.4641 19.2399 21.6235L21.3743 23.8079L25.8419 19.2372C25.9969 19.078 26.2074 18.9882 26.4271 18.9876C26.6468 18.987 26.8577 19.0757 27.0135 19.2341Z"/>
</mask>
<path d="M22.6291 13.0731C20.9033 13.0731 19.2163 13.5966 17.7813 14.5776C16.3464 15.5585 15.228 16.9527 14.5676 18.5839C13.9071 20.2151 13.7343 22.0101 14.071 23.7417C14.4077 25.4734 15.2388 27.0641 16.4591 28.3125C17.6794 29.561 19.2342 30.4112 20.9268 30.7557C22.6194 31.1001 24.3739 30.9234 25.9683 30.2477C27.5627 29.572 28.9255 28.4278 29.8843 26.9598C30.8431 25.4917 31.3548 23.7658 31.3548 22.0002C31.3522 19.6334 30.432 17.3643 28.7962 15.6908C27.1604 14.0172 24.9425 13.0758 22.6291 13.0731ZM22.6291 29.2282C21.2308 29.2282 19.864 28.8039 18.7015 28.0091C17.5389 27.2143 16.6329 26.0846 16.098 24.7629C15.563 23.4412 15.4233 21.9868 15.6963 20.5839C15.9694 19.1809 16.643 17.8923 17.632 16.881C18.621 15.8698 19.8809 15.1813 21.2524 14.9027C22.6239 14.6241 24.0453 14.7679 25.3369 15.3159C26.6285 15.8639 27.7322 16.7914 28.5085 17.9812C29.2848 19.171 29.6987 20.5696 29.698 22.0002C29.6957 23.9174 28.9502 25.7555 27.625 27.1111C26.2998 28.4667 24.5031 29.2292 22.6291 29.2313V29.2282ZM42.6163 25.637C42.8146 25.6092 42.9963 25.5089 43.1279 25.3546C43.2594 25.2003 43.3319 25.0025 43.3319 24.7977V19.1994C43.3319 18.9946 43.2595 18.7967 43.128 18.6422C42.9964 18.4878 42.8147 18.3873 42.6163 18.3593L38.2758 17.7447C37.9079 16.3223 37.3548 14.957 36.6313 13.6854L39.2787 10.1116C39.3992 9.94806 39.4577 9.74548 39.4436 9.54124C39.4294 9.33701 39.3435 9.14491 39.2017 9.00042L35.3303 5.03966C35.1891 4.89444 35.0013 4.80644 34.8017 4.79195C34.602 4.77746 34.4039 4.83747 34.2442 4.96086L30.7509 7.6694C29.5092 6.93192 28.1766 6.36767 26.7886 5.99163L26.1901 1.55095C26.1629 1.3481 26.0649 1.16219 25.9141 1.0276C25.7632 0.893014 25.5699 0.818855 25.3698 0.818848H19.8915C19.6914 0.818855 19.4981 0.893014 19.3472 1.0276C19.1964 1.16219 19.0984 1.3481 19.0712 1.55095L18.4696 5.99242C17.0796 6.36897 15.7453 6.93486 14.5026 7.67492L11.0087 4.96637C10.8489 4.84298 10.6508 4.78298 10.4512 4.79747C10.2515 4.81195 10.0637 4.89995 9.92256 5.04518L6.05112 9.00515C5.90926 9.14976 5.82332 9.342 5.80916 9.54637C5.795 9.75074 5.85359 9.95345 5.9741 10.1171L8.62155 13.6909C7.90063 14.9612 7.34934 16.3246 6.98239 17.7447L2.64186 18.3562C2.44352 18.3842 2.26179 18.4847 2.13025 18.6391C1.99871 18.7935 1.92625 18.9914 1.92627 19.1963V24.7977C1.92625 25.0024 1.99863 25.2001 2.13002 25.3544C2.26142 25.5086 2.44296 25.609 2.64109 25.637L6.98239 26.2485C7.3503 27.6712 7.90344 29.0367 8.62694 30.3086L5.97949 33.8824C5.85903 34.0459 5.80048 34.2485 5.81464 34.4528C5.8288 34.657 5.91471 34.8491 6.05651 34.9936L9.92795 38.9543C10.0692 39.0994 10.2569 39.1873 10.4566 39.2018C10.6562 39.2163 10.8542 39.1564 11.014 39.0331L14.5073 36.3238C15.7484 37.0641 17.0811 37.6306 18.4696 38.0079L19.0681 42.4486C19.0953 42.6514 19.1933 42.8373 19.3442 42.9719C19.495 43.1065 19.6883 43.1807 19.8884 43.1807H25.3636C25.5637 43.1807 25.7571 43.1065 25.9079 42.9719C26.0587 42.8373 26.1568 42.6514 26.1839 42.4486L26.7825 38.0079C28.1725 37.6311 29.5067 37.0649 30.7494 36.3246L34.2434 39.0331C34.4032 39.1565 34.6012 39.2165 34.8009 39.2021C35.0006 39.1876 35.1883 39.0996 35.3295 38.9543L39.2009 34.9936C39.3427 34.8491 39.4286 34.657 39.4428 34.4528C39.457 34.2485 39.3984 34.0459 39.2779 33.8824L36.6297 30.3078C37.3535 29.0387 37.9071 27.6757 38.2758 26.2556L42.6163 25.637ZM36.7976 25.2997C36.4356 26.9336 35.8039 28.4924 34.9297 29.9091C34.8398 30.055 34.7955 30.2255 34.8028 30.3979C34.8101 30.5702 34.8686 30.7362 34.9705 30.8736L37.5217 34.3174L34.6717 37.2332L31.3055 34.6232C31.1712 34.5192 31.0091 34.4596 30.8408 34.4523C30.6725 34.445 30.506 34.4903 30.3635 34.5822C28.9785 35.4765 27.4546 36.1228 25.8574 36.4932C25.6933 36.5313 25.5445 36.6195 25.4307 36.7462C25.3169 36.8729 25.2435 37.0321 25.2203 37.2025L24.6442 41.4816H20.614L20.0379 37.2025C20.0146 37.0321 19.9411 36.873 19.8274 36.7463C19.7136 36.6197 19.5648 36.5314 19.4009 36.4932C17.8036 36.1228 16.2797 35.4765 14.8947 34.5822C14.7522 34.4902 14.5857 34.4449 14.4173 34.4523C14.249 34.4598 14.0868 34.5197 13.9527 34.624L10.5865 37.234L7.7365 34.3182L10.2877 30.8744C10.3896 30.7372 10.4481 30.5713 10.4554 30.3991C10.4627 30.2268 10.4184 30.0564 10.3285 29.9106C9.45437 28.4937 8.82268 26.9346 8.46056 25.3005C8.42337 25.1327 8.33712 24.9805 8.21328 24.8641C8.08944 24.7476 7.93388 24.6726 7.76731 24.6488L3.58468 24.0593V19.9386L7.76731 19.3491C7.93398 19.3253 8.08961 19.2501 8.21346 19.1336C8.33732 19.017 8.42351 18.8646 8.46056 18.6966C8.82282 17.0628 9.4545 15.5041 10.3285 14.0873C10.4184 13.9415 10.4627 13.7711 10.4554 13.5989C10.4481 13.4266 10.3896 13.2608 10.2877 13.1235L7.7365 9.67972L10.5865 6.76392L13.9527 9.37396C14.087 9.47783 14.2491 9.53746 14.4173 9.54492C14.5856 9.55238 14.7521 9.50732 14.8947 9.41572C16.2797 8.52184 17.8032 7.87561 19.4001 7.5047C19.5642 7.46669 19.7131 7.37847 19.827 7.25178C19.941 7.12509 20.0145 6.96593 20.0379 6.79545L20.614 2.51631H24.6442L25.2203 6.79466C25.2435 6.96508 25.3169 7.12422 25.4307 7.25092C25.5445 7.37762 25.6933 7.46586 25.8574 7.50391C27.4548 7.8743 28.9787 8.52085 30.3635 9.41572C30.5061 9.50753 30.6726 9.55272 30.8409 9.54526C31.0092 9.5378 31.1713 9.47804 31.3055 9.37396L34.6717 6.76392L37.5217 9.67972L34.9705 13.1227C34.8686 13.2602 34.8101 13.4261 34.8028 13.5985C34.7955 13.7708 34.8398 13.9414 34.9297 14.0873C35.8037 15.5041 36.4354 17.0628 36.7976 18.6966C36.8347 18.8646 36.9209 19.017 37.0447 19.1336C37.1686 19.2501 37.3242 19.3253 37.4909 19.3491L41.6735 19.9386V24.0617L37.4909 24.6512C37.3243 24.6749 37.1688 24.75 37.0449 24.8664C36.9211 24.9828 36.8348 25.1351 36.7976 25.3029V25.2997ZM27.0135 19.2341C27.1688 19.3931 27.256 19.6086 27.256 19.8334C27.256 20.0582 27.1688 20.2737 27.0135 20.4327L21.9574 25.6063C21.802 25.7651 21.5913 25.8544 21.3716 25.8544C21.1519 25.8544 20.9412 25.7651 20.7858 25.6063L18.0652 22.8229C17.9097 22.6635 17.8225 22.4475 17.8227 22.2223C17.8229 21.9972 17.9106 21.7813 18.0663 21.6223C18.2221 21.4632 18.4333 21.374 18.6533 21.3742C18.8734 21.3744 19.0844 21.4641 19.2399 21.6235L21.3743 23.8079L25.8419 19.2372C25.9969 19.078 26.2074 18.9882 26.4271 18.9876C26.6468 18.987 26.8577 19.0757 27.0135 19.2341Z" fill="#37B0FF"/>
<path d="M22.6291 13.0731C20.9033 13.0731 19.2163 13.5966 17.7813 14.5776C16.3464 15.5585 15.228 16.9527 14.5676 18.5839C13.9071 20.2151 13.7343 22.0101 14.071 23.7417C14.4077 25.4734 15.2388 27.0641 16.4591 28.3125C17.6794 29.561 19.2342 30.4112 20.9268 30.7557C22.6194 31.1001 24.3739 30.9234 25.9683 30.2477C27.5627 29.572 28.9255 28.4278 29.8843 26.9598C30.8431 25.4917 31.3548 23.7658 31.3548 22.0002C31.3522 19.6334 30.432 17.3643 28.7962 15.6908C27.1604 14.0172 24.9425 13.0758 22.6291 13.0731ZM22.6291 29.2282C21.2308 29.2282 19.864 28.8039 18.7015 28.0091C17.5389 27.2143 16.6329 26.0846 16.098 24.7629C15.563 23.4412 15.4233 21.9868 15.6963 20.5839C15.9694 19.1809 16.643 17.8923 17.632 16.881C18.621 15.8698 19.8809 15.1813 21.2524 14.9027C22.6239 14.6241 24.0453 14.7679 25.3369 15.3159C26.6285 15.8639 27.7322 16.7914 28.5085 17.9812C29.2848 19.171 29.6987 20.5696 29.698 22.0002C29.6957 23.9174 28.9502 25.7555 27.625 27.1111C26.2998 28.4667 24.5031 29.2292 22.6291 29.2313V29.2282ZM42.6163 25.637C42.8146 25.6092 42.9963 25.5089 43.1279 25.3546C43.2594 25.2003 43.3319 25.0025 43.3319 24.7977V19.1994C43.3319 18.9946 43.2595 18.7967 43.128 18.6422C42.9964 18.4878 42.8147 18.3873 42.6163 18.3593L38.2758 17.7447C37.9079 16.3223 37.3548 14.957 36.6313 13.6854L39.2787 10.1116C39.3992 9.94806 39.4577 9.74548 39.4436 9.54124C39.4294 9.33701 39.3435 9.14491 39.2017 9.00042L35.3303 5.03966C35.1891 4.89444 35.0013 4.80644 34.8017 4.79195C34.602 4.77746 34.4039 4.83747 34.2442 4.96086L30.7509 7.6694C29.5092 6.93192 28.1766 6.36767 26.7886 5.99163L26.1901 1.55095C26.1629 1.3481 26.0649 1.16219 25.9141 1.0276C25.7632 0.893014 25.5699 0.818855 25.3698 0.818848H19.8915C19.6914 0.818855 19.4981 0.893014 19.3472 1.0276C19.1964 1.16219 19.0984 1.3481 19.0712 1.55095L18.4696 5.99242C17.0796 6.36897 15.7453 6.93486 14.5026 7.67492L11.0087 4.96637C10.8489 4.84298 10.6508 4.78298 10.4512 4.79747C10.2515 4.81195 10.0637 4.89995 9.92256 5.04518L6.05112 9.00515C5.90926 9.14976 5.82332 9.342 5.80916 9.54637C5.795 9.75074 5.85359 9.95345 5.9741 10.1171L8.62155 13.6909C7.90063 14.9612 7.34934 16.3246 6.98239 17.7447L2.64186 18.3562C2.44352 18.3842 2.26179 18.4847 2.13025 18.6391C1.99871 18.7935 1.92625 18.9914 1.92627 19.1963V24.7977C1.92625 25.0024 1.99863 25.2001 2.13002 25.3544C2.26142 25.5086 2.44296 25.609 2.64109 25.637L6.98239 26.2485C7.3503 27.6712 7.90344 29.0367 8.62694 30.3086L5.97949 33.8824C5.85903 34.0459 5.80048 34.2485 5.81464 34.4528C5.8288 34.657 5.91471 34.8491 6.05651 34.9936L9.92795 38.9543C10.0692 39.0994 10.2569 39.1873 10.4566 39.2018C10.6562 39.2163 10.8542 39.1564 11.014 39.0331L14.5073 36.3238C15.7484 37.0641 17.0811 37.6306 18.4696 38.0079L19.0681 42.4486C19.0953 42.6514 19.1933 42.8373 19.3442 42.9719C19.495 43.1065 19.6883 43.1807 19.8884 43.1807H25.3636C25.5637 43.1807 25.7571 43.1065 25.9079 42.9719C26.0587 42.8373 26.1568 42.6514 26.1839 42.4486L26.7825 38.0079C28.1725 37.6311 29.5067 37.0649 30.7494 36.3246L34.2434 39.0331C34.4032 39.1565 34.6012 39.2165 34.8009 39.2021C35.0006 39.1876 35.1883 39.0996 35.3295 38.9543L39.2009 34.9936C39.3427 34.8491 39.4286 34.657 39.4428 34.4528C39.457 34.2485 39.3984 34.0459 39.2779 33.8824L36.6297 30.3078C37.3535 29.0387 37.9071 27.6757 38.2758 26.2556L42.6163 25.637ZM36.7976 25.2997C36.4356 26.9336 35.8039 28.4924 34.9297 29.9091C34.8398 30.055 34.7955 30.2255 34.8028 30.3979C34.8101 30.5702 34.8686 30.7362 34.9705 30.8736L37.5217 34.3174L34.6717 37.2332L31.3055 34.6232C31.1712 34.5192 31.0091 34.4596 30.8408 34.4523C30.6725 34.445 30.506 34.4903 30.3635 34.5822C28.9785 35.4765 27.4546 36.1228 25.8574 36.4932C25.6933 36.5313 25.5445 36.6195 25.4307 36.7462C25.3169 36.8729 25.2435 37.0321 25.2203 37.2025L24.6442 41.4816H20.614L20.0379 37.2025C20.0146 37.0321 19.9411 36.873 19.8274 36.7463C19.7136 36.6197 19.5648 36.5314 19.4009 36.4932C17.8036 36.1228 16.2797 35.4765 14.8947 34.5822C14.7522 34.4902 14.5857 34.4449 14.4173 34.4523C14.249 34.4598 14.0868 34.5197 13.9527 34.624L10.5865 37.234L7.7365 34.3182L10.2877 30.8744C10.3896 30.7372 10.4481 30.5713 10.4554 30.3991C10.4627 30.2268 10.4184 30.0564 10.3285 29.9106C9.45437 28.4937 8.82268 26.9346 8.46056 25.3005C8.42337 25.1327 8.33712 24.9805 8.21328 24.8641C8.08944 24.7476 7.93388 24.6726 7.76731 24.6488L3.58468 24.0593V19.9386L7.76731 19.3491C7.93398 19.3253 8.08961 19.2501 8.21346 19.1336C8.33732 19.017 8.42351 18.8646 8.46056 18.6966C8.82282 17.0628 9.4545 15.5041 10.3285 14.0873C10.4184 13.9415 10.4627 13.7711 10.4554 13.5989C10.4481 13.4266 10.3896 13.2608 10.2877 13.1235L7.7365 9.67972L10.5865 6.76392L13.9527 9.37396C14.087 9.47783 14.2491 9.53746 14.4173 9.54492C14.5856 9.55238 14.7521 9.50732 14.8947 9.41572C16.2797 8.52184 17.8032 7.87561 19.4001 7.5047C19.5642 7.46669 19.7131 7.37847 19.827 7.25178C19.941 7.12509 20.0145 6.96593 20.0379 6.79545L20.614 2.51631H24.6442L25.2203 6.79466C25.2435 6.96508 25.3169 7.12422 25.4307 7.25092C25.5445 7.37762 25.6933 7.46586 25.8574 7.50391C27.4548 7.8743 28.9787 8.52085 30.3635 9.41572C30.5061 9.50753 30.6726 9.55272 30.8409 9.54526C31.0092 9.5378 31.1713 9.47804 31.3055 9.37396L34.6717 6.76392L37.5217 9.67972L34.9705 13.1227C34.8686 13.2602 34.8101 13.4261 34.8028 13.5985C34.7955 13.7708 34.8398 13.9414 34.9297 14.0873C35.8037 15.5041 36.4354 17.0628 36.7976 18.6966C36.8347 18.8646 36.9209 19.017 37.0447 19.1336C37.1686 19.2501 37.3242 19.3253 37.4909 19.3491L41.6735 19.9386V24.0617L37.4909 24.6512C37.3243 24.6749 37.1688 24.75 37.0449 24.8664C36.9211 24.9828 36.8348 25.1351 36.7976 25.3029V25.2997ZM27.0135 19.2341C27.1688 19.3931 27.256 19.6086 27.256 19.8334C27.256 20.0582 27.1688 20.2737 27.0135 20.4327L21.9574 25.6063C21.802 25.7651 21.5913 25.8544 21.3716 25.8544C21.1519 25.8544 20.9412 25.7651 20.7858 25.6063L18.0652 22.8229C17.9097 22.6635 17.8225 22.4475 17.8227 22.2223C17.8229 21.9972 17.9106 21.7813 18.0663 21.6223C18.2221 21.4632 18.4333 21.374 18.6533 21.3742C18.8734 21.3744 19.0844 21.4641 19.2399 21.6235L21.3743 23.8079L25.8419 19.2372C25.9969 19.078 26.2074 18.9882 26.4271 18.9876C26.6468 18.987 26.8577 19.0757 27.0135 19.2341Z" stroke="#37B0FF" stroke-width="0.4" mask="url(#path-1-outside-1_1049_8445)"/>
</svg>
