<svg width="62" height="43" viewBox="0 0 62 43" fill="none" xmlns="http://www.w3.org/2000/svg">
<path d="M27.7608 32.2505H15.7707C15.4816 32.2505 15.2043 32.3637 14.9999 32.5653C14.7955 32.7669 14.6807 33.0404 14.6807 33.3255C14.6807 33.6106 14.7955 33.884 14.9999 34.0856C15.2043 34.2872 15.4816 34.4005 15.7707 34.4005H27.7608C28.0498 34.4005 28.3271 34.2872 28.5315 34.0856C28.7359 33.884 28.8508 33.6106 28.8508 33.3255C28.8508 33.0404 28.7359 32.7669 28.5315 32.5653C28.3271 32.3637 28.0498 32.2505 27.7608 32.2505Z" fill="#37B0FF"/>
<path d="M29.9408 25.8008H15.7707C15.4816 25.8008 15.2043 25.914 14.9999 26.1156C14.7955 26.3172 14.6807 26.5907 14.6807 26.8758C14.6807 27.1609 14.7955 27.4343 14.9999 27.6359C15.2043 27.8375 15.4816 27.9507 15.7707 27.9507H29.9408C30.2299 27.9507 30.5071 27.8375 30.7115 27.6359C30.9159 27.4343 31.0308 27.1609 31.0308 26.8758C31.0308 26.5907 30.9159 26.3172 30.7115 26.1156C30.5071 25.914 30.2299 25.8008 29.9408 25.8008Z" fill="#37B0FF"/>
<path d="M32.1208 19.3506H15.7707C15.4816 19.3506 15.2043 19.4638 14.9999 19.6654C14.7955 19.867 14.6807 20.1405 14.6807 20.4256C14.6807 20.7107 14.7955 20.9841 14.9999 21.1857C15.2043 21.3873 15.4816 21.5006 15.7707 21.5006H32.1208C32.4099 21.5006 32.6871 21.3873 32.8915 21.1857C33.096 20.9841 33.2108 20.7107 33.2108 20.4256C33.2108 20.1405 33.096 19.867 32.8915 19.6654C32.6871 19.4638 32.4099 19.3506 32.1208 19.3506Z" fill="#37B0FF"/>
<path d="M60.6144 6.75203C56.9163 6.06692 53.0926 6.57976 49.7143 8.214V6.45103C49.7143 5.59572 49.3698 4.77544 48.7566 4.17064C48.1433 3.56585 47.3116 3.22608 46.4443 3.22608H15.2156C14.4211 2.18111 13.381 1.34216 12.1849 0.781391C10.9889 0.220624 9.67253 -0.0451629 8.34922 0.00689576C7.02591 0.0589545 5.73523 0.427301 4.58823 1.08024C3.44123 1.73319 2.47226 2.65118 1.76466 3.75523C1.05707 4.85929 0.632052 6.11636 0.52617 7.41829C0.420289 8.72022 0.636716 10.028 1.15683 11.2292C1.67695 12.4304 2.48518 13.4889 3.51199 14.3138C4.5388 15.1387 5.75345 15.7052 7.05143 15.9646V39.7755C7.05143 40.6308 7.39595 41.4511 8.0092 42.0559C8.62245 42.6607 9.45419 43.0005 10.3215 43.0005H39.7517C39.8941 42.9988 40.0348 42.9696 40.1659 42.9145C40.298 42.86 40.4196 42.7837 40.5256 42.6887L49.2456 34.0889C49.3309 33.9924 49.4008 33.8836 49.4527 33.7664C49.4568 33.7343 49.4568 33.7017 49.4527 33.6696C49.4772 33.5778 49.4954 33.4844 49.5072 33.3901C49.5072 33.3901 49.5072 33.3901 49.5072 33.3256V26.435L50.4992 25.9727C50.6704 25.8854 50.8152 25.7548 50.9186 25.5943C51.022 25.4338 51.0804 25.249 51.0878 25.059L51.3712 18.9746L57.5951 19.2541C57.7838 19.2623 57.9714 19.2221 58.1395 19.1373C58.3077 19.0525 58.4506 18.926 58.5543 18.7703C60.7678 15.5081 61.7832 11.5972 61.4319 7.68726C61.4096 7.46742 61.3192 7.25968 61.1729 7.09234C61.0266 6.92499 60.8316 6.80617 60.6144 6.75203ZM2.6914 8.06351C2.6914 6.89414 3.04301 5.75104 3.70175 4.77875C4.36049 3.80646 5.29679 3.04865 6.39224 2.60115C7.48769 2.15365 8.6931 2.03657 9.85602 2.2647C11.0189 2.49283 12.0872 3.05593 12.9256 3.8828C13.764 4.70967 14.335 5.76316 14.5663 6.91005C14.7976 8.05695 14.6789 9.24574 14.2251 10.3261C13.7714 11.4064 13.003 12.3298 12.0171 12.9795C11.0312 13.6292 9.87215 13.9759 8.68645 13.9759C7.09735 13.9731 5.57416 13.3493 4.45049 12.2411C3.32683 11.1329 2.69428 9.6307 2.6914 8.06351ZM40.8417 39.3348V35.4756C40.8417 35.1905 40.9565 34.9171 41.1609 34.7155C41.3654 34.5139 41.6426 34.4006 41.9317 34.4006H45.8448L40.8417 39.3348ZM47.3817 32.2506H41.9317C41.0644 32.2506 40.2327 32.5904 39.6194 33.1952C39.0062 33.8 38.6617 34.6203 38.6617 35.4756V40.8505H10.3215C10.0324 40.8505 9.75512 40.7373 9.55071 40.5357C9.34629 40.3341 9.23145 40.0606 9.23145 39.7755V16.1259C11.2991 15.9922 13.2378 15.0882 14.6546 13.597C16.0715 12.1059 16.8604 10.1393 16.8615 8.09576C16.8602 7.17934 16.698 6.27007 16.3819 5.4083H46.4879C46.777 5.4083 47.0543 5.52155 47.2587 5.72315C47.4631 5.92475 47.5779 6.19818 47.5779 6.48328V9.41799C46.5174 10.0708 45.5179 10.8155 44.5913 11.6432C42.4649 13.4456 40.7791 15.6987 39.6598 18.2341C38.5406 20.7694 38.0167 23.5214 38.1276 26.2845L34.6504 29.3912C34.4986 29.5396 34.3943 29.7288 34.3507 29.9352C34.307 30.1416 34.3258 30.356 34.4048 30.552C34.4838 30.7479 34.6195 30.9165 34.795 31.037C34.9704 31.1575 35.1779 31.2244 35.3916 31.2294C35.6618 31.2287 35.922 31.1291 36.1219 30.9499L39.61 27.8325C40.4423 27.969 41.2842 28.0408 42.1279 28.0475C43.9104 28.0416 45.6817 27.7698 47.3817 27.2412V32.2506ZM57.1046 17.0826L50.4338 16.7816C50.1539 16.7813 49.8846 16.8871 49.6816 17.0772C49.4787 17.2674 49.3577 17.5272 49.3437 17.8029L49.0385 24.328L48.1011 24.7258C45.6504 25.7343 42.9779 26.1045 40.3403 25.8007C40.33 23.418 40.8408 21.0611 41.8377 18.8906C42.8347 16.7202 44.2944 14.7872 46.1173 13.2234C47.8786 11.5918 49.9705 10.3467 52.2551 9.57037C54.5397 8.794 56.9652 8.50392 59.3718 8.71925C59.4503 11.6644 58.6629 14.569 57.1046 17.0826Z" fill="#37B0FF"/>
<path d="M10.9747 11.0732C11.2059 10.9021 11.3588 10.6475 11.3997 10.3652C11.4406 10.083 11.3661 9.7963 11.1927 9.56822C11.0192 9.34014 10.761 9.18935 10.4748 9.14903C10.1886 9.10871 9.89791 9.18216 9.66664 9.35322C9.38516 9.56542 9.03992 9.67891 8.68563 9.67572C8.252 9.67572 7.83613 9.50583 7.52951 9.20343C7.22288 8.90103 7.05062 8.4909 7.05062 8.06324C7.05062 7.63559 7.22288 7.22545 7.52951 6.92305C7.83613 6.62065 8.252 6.45077 8.68563 6.45077C9.03992 6.44757 9.38516 6.56106 9.66664 6.77326C9.89791 6.94432 10.1886 7.01777 10.4748 6.97745C10.761 6.93713 11.0192 6.78635 11.1927 6.55826C11.3661 6.33018 11.4406 6.04348 11.3997 5.76125C11.3588 5.47901 11.2059 5.22435 10.9747 5.05329C10.3154 4.56273 9.51148 4.29845 8.68563 4.3008C7.67383 4.3008 6.70346 4.6972 5.988 5.40279C5.27254 6.10839 4.87061 7.06538 4.87061 8.06324C4.87061 9.0611 5.27254 10.0181 5.988 10.7237C6.70346 11.4293 7.67383 11.8257 8.68563 11.8257C9.51148 11.828 10.3154 11.5638 10.9747 11.0732Z" fill="#37B0FF"/>
</svg>
