<svg width="56" height="43" viewBox="0 0 56 43" fill="none" xmlns="http://www.w3.org/2000/svg">
<path d="M6.72082 26.641L12.0761 22.8966C13.4749 22.2228 15.0781 22.0989 16.5649 22.5497L33.9303 27.7835C34.2594 27.8797 34.5411 28.0935 34.7212 28.3837C34.9013 28.674 34.967 29.0201 34.9058 29.3557C34.8445 29.6912 34.6606 29.9924 34.3895 30.2012C34.1183 30.4101 33.7791 30.5119 33.4369 30.4871L22.5098 29.7992C22.2273 29.781 21.9492 29.875 21.7364 30.0607C21.5237 30.2463 21.3939 30.5084 21.3756 30.7892C21.3572 31.0699 21.4518 31.3465 21.6386 31.5579C21.8253 31.7694 22.0889 31.8984 22.3714 31.9167L33.3166 32.6045H33.5392C34.3841 32.6057 35.2011 32.3048 35.8413 31.7567C36.4814 31.2086 36.9019 30.45 37.026 29.6193C37.15 28.7885 36.9694 27.9412 36.5171 27.2319C36.0647 26.5225 35.3709 25.9986 34.5621 25.7557L17.1967 20.5219C15.1587 19.9046 12.9603 20.0865 11.0532 21.0304L10.9148 21.1141L5.66181 24.7927L0.848094 25.9412C0.709411 25.9698 0.577878 26.0257 0.461193 26.1056C0.344508 26.1854 0.245017 26.2876 0.168543 26.4061C0.0920689 26.5246 0.040149 26.6571 0.0158226 26.7959C-0.00850385 26.9346 -0.00474793 27.0767 0.0268701 27.214C0.0584882 27.3513 0.117333 27.4809 0.19996 27.5952C0.282588 27.7096 0.387337 27.8065 0.508077 27.8801C0.628817 27.9537 0.763121 28.0027 0.903127 28.0241C1.04313 28.0455 1.18603 28.0389 1.32345 28.0048L6.33573 26.8085C6.47411 26.7789 6.60509 26.722 6.72082 26.641Z" fill="#37B0FF"/>
<path d="M55.5734 26.0307C55.1326 25.1532 54.3864 24.4646 53.4734 24.0928C52.5604 23.721 51.5427 23.6912 50.6093 24.0089L39.5498 27.7952C39.4169 27.8396 39.2942 27.9098 39.1889 28.0018C39.0835 28.0937 38.9975 28.2055 38.936 28.3307C38.8744 28.4559 38.8384 28.592 38.8302 28.7311C38.8219 28.8702 38.8415 29.0095 38.8879 29.1411C38.9809 29.4059 39.1752 29.6236 39.4287 29.7468C39.6822 29.87 39.9744 29.8887 40.2417 29.799L51.3073 26.0127C51.7632 25.8642 52.2584 25.8897 52.6965 26.0843C53.1345 26.2788 53.4841 26.6284 53.6771 27.0651C53.87 27.5017 53.8926 27.9942 53.7404 28.4465C53.5882 28.8988 53.2721 29.2786 52.8537 29.5119L32.7263 40.3205C32.1382 40.6362 31.4879 40.8206 30.8207 40.8609C30.1536 40.9012 29.4856 40.7964 28.8633 40.5537C10.6494 33.4597 10.0899 33.4717 9.74687 33.4657C9.60159 33.4704 9.45858 33.5029 9.32567 33.5614L4.35552 35.7805C4.2279 35.8375 4.11282 35.9188 4.01684 36.02C3.92087 36.1212 3.84587 36.2401 3.79614 36.3701C3.74642 36.5001 3.72293 36.6385 3.72702 36.7775C3.73111 36.9165 3.7627 37.0533 3.81999 37.1802C3.87728 37.307 3.95914 37.4214 4.0609 37.5168C4.16267 37.6123 4.28234 37.6868 4.41308 37.7362C4.54383 37.7857 4.68309 37.809 4.82291 37.805C4.96274 37.8009 5.10039 37.7695 5.228 37.7125L9.86722 35.6489C11.1248 36.0317 16.4379 37.9996 28.0871 42.5336C28.9965 42.8919 29.974 43.0471 30.9503 42.9882C31.9267 42.9293 32.8781 42.6577 33.7372 42.1927L53.8706 31.3781C54.7972 30.881 55.493 30.045 55.8108 29.047C56.1286 28.0491 56.0435 26.9674 55.5734 26.0307Z" fill="#37B0FF"/>
<path d="M19.6513 18.177C19.9256 18.1314 20.1709 17.9804 20.3341 17.7566C20.4974 17.5328 20.5655 17.2541 20.5238 16.9807C20.4082 16.2747 20.3498 15.5606 20.3493 14.8453C20.3493 11.4576 21.7031 8.20861 24.1128 5.81312C26.5226 3.41763 29.791 2.07186 33.1989 2.07186C36.6068 2.07186 39.8752 3.41763 42.2849 5.81312C44.6947 8.20861 46.0485 11.4576 46.0485 14.8453C46.058 17.5747 45.1777 20.2337 43.5393 22.4239C43.4232 22.5819 43.3531 22.7687 43.3368 22.9638C43.3205 23.1588 43.3586 23.3545 43.4469 23.5295C43.5352 23.7044 43.6703 23.8518 43.8373 23.9553C44.0044 24.0589 44.1969 24.1147 44.3938 24.1166C44.5603 24.1171 44.7246 24.0784 44.8731 24.0035C45.0216 23.9286 45.1502 23.8198 45.2482 23.686C47.1501 21.1278 48.1676 18.0262 48.1485 14.8453C48.1441 12.7895 47.7112 10.7568 46.8769 8.8756C46.0426 6.99442 44.8252 5.30556 43.3013 3.91559C41.7775 2.52563 39.9804 1.46474 38.0234 0.799876C36.0664 0.135011 33.992 -0.119398 31.9311 0.0527058C29.8703 0.22481 27.8676 0.81969 26.0497 1.79981C24.2317 2.77992 22.6378 4.12399 21.3686 5.7472C20.0994 7.37041 19.1825 9.23752 18.6756 11.2307C18.1688 13.2239 18.083 15.2999 18.4238 17.3276C18.4751 17.6012 18.6326 17.8436 18.8623 18.0025C19.092 18.1615 19.3755 18.2242 19.6513 18.177Z" fill="#37B0FF"/>
<path d="M33.2142 21.5565C33.344 21.5573 33.4727 21.5325 33.5928 21.4835C33.7129 21.4344 33.822 21.3622 33.9138 21.271C34.0056 21.1797 34.0782 21.0713 34.1276 20.9519C34.1769 20.8325 34.2018 20.7046 34.201 20.5755V19.6664C34.9018 19.51 35.5491 19.1738 36.0784 18.6914C36.3624 18.4378 36.59 18.1281 36.7464 17.782C36.9029 17.4359 36.9848 17.061 36.987 16.6816C36.987 14.2352 35.3142 13.4994 33.5151 13.0927C31.716 12.686 31.7581 11.9921 31.7099 11.6571C31.7327 11.3346 31.8716 11.0309 32.1011 10.8018C32.2048 10.7013 32.3303 10.6258 32.468 10.5812C32.6058 10.5366 32.752 10.5241 32.8953 10.5446C34.6162 10.6582 34.7847 11.5794 34.8449 11.8545C34.8608 11.9876 34.9041 12.1159 34.9719 12.2317C35.0396 12.3475 35.1306 12.4483 35.2391 12.5278C35.3475 12.6073 35.4712 12.6639 35.6026 12.6941C35.7339 12.7242 35.87 12.7273 36.0026 12.7032C36.1352 12.679 36.2613 12.6282 36.3734 12.5537C36.4854 12.4792 36.5809 12.3827 36.654 12.2701C36.727 12.1575 36.7761 12.0312 36.7982 11.8991C36.8203 11.7669 36.8149 11.6316 36.7824 11.5016C36.6657 10.846 36.3595 10.2383 35.9011 9.75287C35.4426 9.26743 34.8519 8.92523 34.201 8.76808V7.69141C34.201 7.43125 34.0971 7.18173 33.912 6.99777C33.7269 6.8138 33.4759 6.71045 33.2142 6.71045C32.9525 6.71045 32.7015 6.8138 32.5164 6.99777C32.3314 7.18173 32.2274 7.43125 32.2274 7.69141V8.62452C31.6713 8.72372 31.1579 8.98623 30.7532 9.37819C30.4344 9.68985 30.1826 10.0626 30.0129 10.4739C29.8433 10.8851 29.7594 11.3264 29.7664 11.7708C29.8326 12.9073 30.4584 14.3847 33.0518 15.0008C35.0073 15.4673 35.0073 15.9818 35.0073 16.6995C35.007 16.8143 34.9809 16.9276 34.9309 17.031C34.8809 17.1345 34.8084 17.2256 34.7185 17.2977C34.3618 17.6179 33.9048 17.8059 33.4248 17.83C32.9555 17.83 31.4211 17.6027 31.4211 16.0356C31.4211 15.7754 31.3172 15.5259 31.1321 15.3419C30.947 15.158 30.696 15.0546 30.4343 15.0546C30.1726 15.0546 29.9216 15.158 29.7365 15.3419C29.5515 15.5259 29.4475 15.7754 29.4475 16.0356C29.4184 16.8619 29.6801 17.6724 30.1876 18.3275C30.695 18.9826 31.4164 19.4413 32.2274 19.6245V20.6294C32.2398 20.8806 32.3494 21.1174 32.5333 21.2901C32.7172 21.4629 32.9612 21.5584 33.2142 21.5565Z" fill="#37B0FF"/>
</svg>
